<?xml version="1.0" encoding="UTF-8" standalone="no"?>
<!DOCTYPE svg PUBLIC "-//W3C//DTD SVG 1.1//EN"
 "http://www.w3.org/Graphics/SVG/1.1/DTD/svg11.dtd">
<!-- Generated by graphviz version 2.28.0 (20110509.1545)
 -->
<!-- Title: _anonymous_0 Pages: 1 -->
<svg width="862pt" height="332pt"
 viewBox="0.00 0.00 862.00 332.00" xmlns="http://www.w3.org/2000/svg" xmlns:xlink="http://www.w3.org/1999/xlink">
<g id="graph1" class="graph" transform="scale(1 1) rotate(0) translate(4 328)">
<title>_anonymous_0</title>
<polygon fill="white" stroke="white" points="-4,5 -4,-328 859,-328 859,5 -4,5"/>
<!-- found.ward.bay.wiki.org -->
<g id="node1" class="node"><title>found.ward.bay.wiki.org</title>
<polygon fill="palegreen" stroke="black" points="481.444,-324 328.556,-324 328.556,-288 481.444,-288 481.444,-324"/>
<text text-anchor="middle" x="405" y="-300.4" font-family="Times,serif" font-size="14.00">found.ward.bay.wiki.org</text>
</g>
<!-- found.ward.bay.wiki.org&#45;&gt;found.ward.bay.wiki.org -->
<g id="edge4" class="edge"><title>found.ward.bay.wiki.org&#45;&gt;found.ward.bay.wiki.org</title>
<path fill="none" stroke="black" d="M481.347,-318.047C491.928,-316.062 499,-312.047 499,-306 499,-302.126 496.098,-299.086 491.23,-296.88"/>
<polygon fill="black" stroke="black" points="491.929,-293.437 481.347,-293.953 489.942,-300.149 491.929,-293.437"/>
</g>
<!-- ward.bay.wiki.org -->
<g id="node3" class="node"><title>ward.bay.wiki.org</title>
<polygon fill="palegreen" stroke="black" points="160.322,-252 43.6777,-252 43.6777,-216 160.322,-216 160.322,-252"/>
<text text-anchor="middle" x="102" y="-228.4" font-family="Times,serif" font-size="14.00">ward.bay.wiki.org</text>
</g>
<!-- found.ward.bay.wiki.org&#45;&gt;ward.bay.wiki.org -->
<g id="edge2" class="edge"><title>found.ward.bay.wiki.org&#45;&gt;ward.bay.wiki.org</title>
<path fill="none" stroke="black" stroke-dasharray="5,2" d="M331.265,-287.966C282.203,-276.631 218.212,-261.848 170.307,-250.781"/>
<polygon fill="black" stroke="black" points="170.871,-247.319 160.34,-248.478 169.296,-254.139 170.871,-247.319"/>
</g>
<!-- ward.asia.wiki.org -->
<g id="node7" class="node"><title>ward.asia.wiki.org</title>
<polygon fill="palegreen" stroke="black" points="118.17,-180 -0.170464,-180 -0.170464,-144 118.17,-144 118.17,-180"/>
<text text-anchor="middle" x="59" y="-156.4" font-family="Times,serif" font-size="14.00">ward.asia.wiki.org</text>
</g>
<!-- found.ward.bay.wiki.org&#45;&gt;ward.asia.wiki.org -->
<g id="edge7" class="edge"><title>found.ward.bay.wiki.org&#45;&gt;ward.asia.wiki.org</title>
<path fill="none" stroke="black" stroke-dasharray="5,2" d="M363.264,-287.871C299.663,-261.769 178.641,-212.101 109.948,-183.909"/>
<polygon fill="black" stroke="black" points="111.194,-180.637 100.614,-180.079 108.536,-187.113 111.194,-180.637"/>
</g>
<!-- wellspring.fed.wiki -->
<g id="node11" class="node"><title>wellspring.fed.wiki</title>
<polygon fill="palegreen" stroke="black" points="467.152,-252 342.848,-252 342.848,-216 467.152,-216 467.152,-252"/>
<text text-anchor="middle" x="405" y="-228.4" font-family="Times,serif" font-size="14.00">wellspring.fed.wiki</text>
</g>
<!-- found.ward.bay.wiki.org&#45;&gt;wellspring.fed.wiki -->
<g id="edge11" class="edge"><title>found.ward.bay.wiki.org&#45;&gt;wellspring.fed.wiki</title>
<path fill="none" stroke="black" stroke-dasharray="5,2" d="M399.084,-287.697C398.289,-279.983 398.062,-270.712 398.405,-262.112"/>
<polygon fill="black" stroke="black" points="401.898,-262.324 399.105,-252.104 394.915,-261.836 401.898,-262.324"/>
</g>
<!-- jon.federated.wiki -->
<g id="node13" class="node"><title>jon.federated.wiki</title>
<polygon fill="palegreen" stroke="black" points="711.387,-252 594.613,-252 594.613,-216 711.387,-216 711.387,-252"/>
<text text-anchor="middle" x="653" y="-228.4" font-family="Times,serif" font-size="14.00">jon.federated.wiki</text>
</g>
<!-- found.ward.bay.wiki.org&#45;&gt;jon.federated.wiki -->
<g id="edge13" class="edge"><title>found.ward.bay.wiki.org&#45;&gt;jon.federated.wiki</title>
<path fill="none" stroke="black" stroke-dasharray="5,2" d="M465.351,-287.966C501.413,-277.787 547.33,-264.826 584.716,-254.274"/>
<polygon fill="black" stroke="black" points="585.847,-257.591 594.521,-251.506 583.946,-250.854 585.847,-257.591"/>
</g>
<!-- ward.bay.wiki.org&#45;&gt;ward.asia.wiki.org -->
<g id="edge16" class="edge"><title>ward.bay.wiki.org&#45;&gt;ward.asia.wiki.org</title>
<path fill="none" stroke="black" stroke-dasharray="5,2" d="M91.3708,-215.697C86.3719,-207.559 80.309,-197.689 74.7879,-188.701"/>
<polygon fill="black" stroke="black" points="77.7234,-186.793 69.5069,-180.104 71.7589,-190.457 77.7234,-186.793"/>
</g>
<!-- ward.asia.wiki.org&#45;&gt;ward.asia.wiki.org -->
<g id="edge18" class="edge"><title>ward.asia.wiki.org&#45;&gt;ward.asia.wiki.org</title>
<path fill="none" stroke="black" d="M118.404,-174.656C128.781,-172.969 136,-168.75 136,-162 136,-157.676 133.037,-154.39 128.18,-152.144"/>
<polygon fill="black" stroke="black" points="128.981,-148.733 118.404,-149.344 127.054,-155.462 128.981,-148.733"/>
</g>
<!-- wellspring.fed.wiki&#45;&gt;found.ward.bay.wiki.org -->
<g id="edge35" class="edge"><title>wellspring.fed.wiki&#45;&gt;found.ward.bay.wiki.org</title>
<path fill="none" stroke="black" stroke-dasharray="5,2" d="M410.895,-252.104C411.701,-259.791 411.937,-269.054 411.604,-277.665"/>
<polygon fill="black" stroke="black" points="408.109,-277.48 410.916,-287.697 415.092,-277.96 408.109,-277.48"/>
</g>
<!-- wellspring.fed.wiki&#45;&gt;wellspring.fed.wiki -->
<g id="edge21" class="edge"><title>wellspring.fed.wiki&#45;&gt;wellspring.fed.wiki</title>
<path fill="none" stroke="black" d="M467.388,-246.547C477.809,-244.792 485,-240.609 485,-234 485,-229.766 482.049,-226.528 477.188,-224.286"/>
<polygon fill="black" stroke="black" points="477.967,-220.868 467.388,-221.453 476.023,-227.592 477.967,-220.868"/>
</g>
<!-- code.wiki.randombits.xyz -->
<g id="node23" class="node"><title>code.wiki.randombits.xyz</title>
<polygon fill="palegreen" stroke="black" points="430.268,-36 269.732,-36 269.732,-0 430.268,-0 430.268,-36"/>
<text text-anchor="middle" x="350" y="-12.4" font-family="Times,serif" font-size="14.00">code.wiki.randombits.xyz</text>
</g>
<!-- wellspring.fed.wiki&#45;&gt;code.wiki.randombits.xyz -->
<g id="edge26" class="edge"><title>wellspring.fed.wiki&#45;&gt;code.wiki.randombits.xyz</title>
<path fill="none" stroke="black" stroke-dasharray="5,2" d="M342.593,-216.849C289.862,-199.526 217.696,-166.295 184,-108 175.993,-94.1476 174.562,-84.9202 184,-72 201.796,-47.6374 230.918,-34.213 259.841,-26.9019"/>
<polygon fill="black" stroke="black" points="260.666,-30.3038 269.626,-24.6499 259.095,-23.4821 260.666,-30.3038"/>
</g>
<!-- code.wiki.dbbs.co -->
<g id="node25" class="node"><title>code.wiki.dbbs.co</title>
<polygon fill="palegreen" stroke="black" points="463.609,-180 346.391,-180 346.391,-144 463.609,-144 463.609,-180"/>
<text text-anchor="middle" x="405" y="-156.4" font-family="Times,serif" font-size="14.00">code.wiki.dbbs.co</text>
</g>
<!-- wellspring.fed.wiki&#45;&gt;code.wiki.dbbs.co -->
<g id="edge28" class="edge"><title>wellspring.fed.wiki&#45;&gt;code.wiki.dbbs.co</title>
<path fill="none" stroke="black" d="M405,-215.697C405,-207.983 405,-198.712 405,-190.112"/>
<polygon fill="black" stroke="black" points="408.5,-190.104 405,-180.104 401.5,-190.104 408.5,-190.104"/>
</g>
<!-- dev2.wiki.innovateoregon.org -->
<g id="node39" class="node"><title>dev2.wiki.innovateoregon.org</title>
<polygon fill="palegreen" stroke="black" points="377.077,-108 192.923,-108 192.923,-72 377.077,-72 377.077,-108"/>
<text text-anchor="middle" x="285" y="-84.4" font-family="Times,serif" font-size="14.00">dev2.wiki.innovateoregon.org</text>
</g>
<!-- wellspring.fed.wiki&#45;&gt;dev2.wiki.innovateoregon.org -->
<g id="edge43" class="edge"><title>wellspring.fed.wiki&#45;&gt;dev2.wiki.innovateoregon.org</title>
<path fill="none" stroke="black" stroke-dasharray="5,2" d="M378.494,-215.935C365.031,-206.425 349.024,-193.744 337,-180 320.444,-161.076 306.397,-136.114 297.092,-117.443"/>
<polygon fill="black" stroke="black" points="300.181,-115.791 292.67,-108.318 293.882,-118.844 300.181,-115.791"/>
</g>
<!-- code.fed.wiki -->
<g id="node42" class="node"><title>code.fed.wiki</title>
<polygon fill="palegreen" stroke="black" points="631.145,-108 538.855,-108 538.855,-72 631.145,-72 631.145,-108"/>
<text text-anchor="middle" x="585" y="-84.4" font-family="Times,serif" font-size="14.00">code.fed.wiki</text>
</g>
<!-- wellspring.fed.wiki&#45;&gt;code.fed.wiki -->
<g id="edge46" class="edge"><title>wellspring.fed.wiki&#45;&gt;code.fed.wiki</title>
<path fill="none" stroke="black" stroke-dasharray="5,2" d="M427.501,-215.973C443.093,-206.192 463.763,-193.245 481,-180 507.219,-159.853 534.499,-133.665 554.743,-114.921"/>
<polygon fill="black" stroke="black" points="557.141,-117.471 562.141,-108.13 552.407,-112.314 557.141,-117.471"/>
</g>
<!-- jon.federated.wiki&#45;&gt;jon.federated.wiki -->
<g id="edge76" class="edge"><title>jon.federated.wiki&#45;&gt;jon.federated.wiki</title>
<path fill="none" stroke="black" d="M711.633,-246.656C721.875,-244.969 729,-240.75 729,-234 729,-229.676 726.076,-226.39 721.281,-224.144"/>
<polygon fill="black" stroke="black" points="722.212,-220.77 711.633,-221.344 720.261,-227.492 722.212,-220.77"/>
</g>
<!-- jon.fed.wiki -->
<g id="node70" class="node"><title>jon.fed.wiki</title>
<polygon fill="palegreen" stroke="black" points="686.244,-180 603.756,-180 603.756,-144 686.244,-144 686.244,-180"/>
<text text-anchor="middle" x="645" y="-156.4" font-family="Times,serif" font-size="14.00">jon.fed.wiki</text>
</g>
<!-- jon.federated.wiki&#45;&gt;jon.fed.wiki -->
<g id="edge74" class="edge"><title>jon.federated.wiki&#45;&gt;jon.fed.wiki</title>
<path fill="none" stroke="black" stroke-dasharray="5,2" d="M651.022,-215.697C650.141,-207.983 649.081,-198.712 648.099,-190.112"/>
<polygon fill="black" stroke="black" points="651.568,-189.642 646.955,-180.104 644.613,-190.437 651.568,-189.642"/>
</g>
<!-- 2019.jon.federated.wiki -->
<g id="node73" class="node"><title>2019.jon.federated.wiki</title>
<polygon fill="palegreen" stroke="black" points="854.511,-180 705.489,-180 705.489,-144 854.511,-144 854.511,-180"/>
<text text-anchor="middle" x="780" y="-156.4" font-family="Times,serif" font-size="14.00">2019.jon.federated.wiki</text>
</g>
<!-- jon.federated.wiki&#45;&gt;2019.jon.federated.wiki -->
<g id="edge78" class="edge"><title>jon.federated.wiki&#45;&gt;2019.jon.federated.wiki</title>
<path fill="none" stroke="black" stroke-dasharray="5,2" d="M684.068,-215.876C700.827,-206.639 721.706,-195.131 739.702,-185.212"/>
<polygon fill="black" stroke="black" points="741.745,-188.082 748.813,-180.19 738.366,-181.952 741.745,-188.082"/>
</g>
<!-- code.wiki.randombits.xyz&#45;&gt;code.wiki.randombits.xyz -->
<g id="edge80" class="edge"><title>code.wiki.randombits.xyz&#45;&gt;code.wiki.randombits.xyz</title>
<path fill="none" stroke="black" d="M430.36,-29.9048C440.966,-27.8745 448,-23.9062 448,-18 448,-14.2163 445.113,-11.228 440.25,-9.03498"/>
<polygon fill="black" stroke="black" points="440.942,-5.58957 430.36,-6.09521 438.948,-12.2994 440.942,-5.58957"/>
</g>
<!-- code.wiki.dbbs.co&#45;&gt;code.wiki.randombits.xyz -->
<g id="edge115" class="edge"><title>code.wiki.dbbs.co&#45;&gt;code.wiki.randombits.xyz</title>
<path fill="none" stroke="black" stroke-dasharray="5,2" d="M403.303,-143.674C401.05,-125.29 396.112,-95.6852 386,-72 381.916,-62.4333 376.012,-52.7836 370.162,-44.3881"/>
<polygon fill="black" stroke="black" points="372.88,-42.1741 364.165,-36.1492 367.22,-46.2938 372.88,-42.1741"/>
</g>
<!-- code.wiki.dbbs.co&#45;&gt;code.wiki.dbbs.co -->
<g id="edge111" class="edge"><title>code.wiki.dbbs.co&#45;&gt;code.wiki.dbbs.co</title>
<path fill="none" stroke="black" d="M463.633,-174.656C473.875,-172.969 481,-168.75 481,-162 481,-157.676 478.076,-154.39 473.281,-152.144"/>
<polygon fill="black" stroke="black" points="474.212,-148.77 463.633,-149.344 472.261,-155.492 474.212,-148.77"/>
</g>
<!-- code.wiki.dbbs.co&#45;&gt;dev2.wiki.innovateoregon.org -->
<g id="edge119" class="edge"><title>code.wiki.dbbs.co&#45;&gt;dev2.wiki.innovateoregon.org</title>
<path fill="none" stroke="black" stroke-dasharray="5,2" d="M375.645,-143.876C359.955,-134.724 340.443,-123.342 323.546,-113.485"/>
<polygon fill="black" stroke="black" points="324.87,-110.205 314.468,-108.19 321.342,-116.252 324.87,-110.205"/>
</g>
<!-- code.wiki.dbbs.co&#45;&gt;code.fed.wiki -->
<g id="edge109" class="edge"><title>code.wiki.dbbs.co&#45;&gt;code.fed.wiki</title>
<path fill="none" stroke="black" stroke-dasharray="5,2" d="M449.033,-143.876C473.968,-134.179 505.338,-121.98 531.662,-111.743"/>
<polygon fill="black" stroke="black" points="533.059,-114.955 541.11,-108.068 530.521,-108.431 533.059,-114.955"/>
</g>
<!-- wiki.dbbs.co -->
<g id="node105" class="node"><title>wiki.dbbs.co</title>
<polygon fill="palegreen" stroke="black" points="520.167,-108 433.833,-108 433.833,-72 520.167,-72 520.167,-108"/>
<text text-anchor="middle" x="477" y="-84.4" font-family="Times,serif" font-size="14.00">wiki.dbbs.co</text>
</g>
<!-- code.wiki.dbbs.co&#45;&gt;wiki.dbbs.co -->
<g id="edge113" class="edge"><title>code.wiki.dbbs.co&#45;&gt;wiki.dbbs.co</title>
<path fill="none" stroke="black" stroke-dasharray="5,2" d="M422.798,-143.697C431.604,-135.135 442.382,-124.656 452.001,-115.304"/>
<polygon fill="black" stroke="black" points="454.677,-117.585 459.407,-108.104 449.797,-112.566 454.677,-117.585"/>
</g>
<!-- code.fed.wiki&#45;&gt;found.ward.bay.wiki.org -->
<g id="edge131" class="edge"><title>code.fed.wiki&#45;&gt;found.ward.bay.wiki.org</title>
<path fill="none" stroke="black" stroke-dasharray="5,2" d="M578.766,-108.138C566.58,-139.754 536.981,-208.034 494,-252 482.028,-264.247 466.646,-274.716 452.049,-283.036"/>
<polygon fill="black" stroke="black" points="450.19,-280.064 443.099,-287.936 453.551,-286.204 450.19,-280.064"/>
</g>
<!-- code.fed.wiki&#45;&gt;wellspring.fed.wiki -->
<g id="edge140" class="edge"><title>code.fed.wiki&#45;&gt;wellspring.fed.wiki</title>
<path fill="none" stroke="black" d="M575.321,-108.13C559.487,-126.875 528.569,-157.279 499,-180 484.591,-191.072 467.783,-201.935 452.323,-210.916"/>
<polygon fill="black" stroke="black" points="450.377,-207.996 443.405,-215.973 453.83,-214.085 450.377,-207.996"/>
</g>
<!-- code.fed.wiki&#45;&gt;code.wiki.randombits.xyz -->
<g id="edge121" class="edge"><title>code.fed.wiki&#45;&gt;code.wiki.randombits.xyz</title>
<path fill="none" stroke="black" stroke-dasharray="5,2" d="M538.863,-74.9667C535.526,-73.9601 532.212,-72.9629 529,-72 492.268,-60.9867 451.252,-48.8321 417.76,-38.9438"/>
<polygon fill="black" stroke="black" points="418.654,-35.5586 408.073,-36.085 416.673,-42.2724 418.654,-35.5586"/>
</g>
<!-- code.fed.wiki&#45;&gt;code.fed.wiki -->
<g id="edge123" class="edge"><title>code.fed.wiki&#45;&gt;code.fed.wiki</title>
<path fill="none" stroke="black" d="M631.312,-103.137C641.546,-101.902 649,-97.5234 649,-90 649,-85.1803 645.941,-81.6511 641.052,-79.4125"/>
<polygon fill="black" stroke="black" points="641.872,-76.0094 631.312,-76.8634 640.1,-82.7814 641.872,-76.0094"/>
</g>
<!-- plugins.fed.wiki.org -->
<g id="node131" class="node"><title>plugins.fed.wiki.org</title>
<polygon fill="palegreen" stroke="black" points="595.182,-36 466.818,-36 466.818,-0 595.182,-0 595.182,-36"/>
<text text-anchor="middle" x="531" y="-12.4" font-family="Times,serif" font-size="14.00">plugins.fed.wiki.org</text>
</g>
<!-- wiki.dbbs.co&#45;&gt;plugins.fed.wiki.org -->
<g id="edge145" class="edge"><title>wiki.dbbs.co&#45;&gt;plugins.fed.wiki.org</title>
<path fill="none" stroke="black" stroke-dasharray="5,2" d="M490.348,-71.6966C496.757,-63.3893 504.558,-53.2771 511.606,-44.1407"/>
<polygon fill="black" stroke="black" points="514.468,-46.16 517.805,-36.1043 508.926,-41.8844 514.468,-46.16"/>
</g>
</g>
</svg>
