<svg xmlns="http://www.w3.org/2000/svg" width="1447.744140625" height="1463.0679931640625" viewBox="-626.8820190429688 -647.3541259765625 1447.744140625 1463.0679931640625"><title>Neo4j Graph Visualization</title><desc>Created using Neo4j (http://www.neo4j.com/)</desc><g class="layer relationships"><g class="relationship" transform="translate(391.44898570029414 763.7262828521366) rotate(525.9258374373521)"><path class="outline" fill="#A5ABB6" stroke="none" d="M 25 0.5 L 31.87222191925528 0.5 L 31.87222191925528 -0.5 L 25 -0.5 Z M 55.65737816925528 0.5 L 62.52960008851056 0.5 L 62.52960008851056 3.5 L 69.52960008851056 0 L 62.52960008851056 -3.5 L 62.52960008851056 -0.5 L 55.65737816925528 -0.5 Z"/><text text-anchor="middle" pointer-events="none" font-size="8px" fill="#000000" x="43.76480004425528" y="3" transform="rotate(180 43.76480004425528 0)" font-family="sans-serif">LINK</text></g><g class="relationship" transform="translate(367.7265053602091 676.3301069643969) rotate(481.62297438510467)"><path class="outline" fill="#A5ABB6" stroke="none" d="M 25 0.5 L 54.53660863228612 0.5 L 54.53660863228612 -0.5 L 25 -0.5 Z M 68.09520238228612 0.5 L 97.63181101457224 0.5 L 97.63181101457224 3.5 L 104.63181101457224 0 L 97.63181101457224 -3.5 L 97.63181101457224 -0.5 L 68.09520238228612 -0.5 Z"/><text text-anchor="middle" pointer-events="none" font-size="8px" fill="#000000" x="61.31590550728612" y="3" transform="rotate(180 61.31590550728612 0)" font-family="sans-serif">IS</text></g><g class="relationship" transform="translate(280.78690625669884 707.7261444164948) rotate(386.8415234170351)"><path class="outline" fill="#A5ABB6" stroke="none" d="M 25 0.5 L 47.28771063399427 0.5 L 47.28771063399427 -0.5 L 25 -0.5 Z M 69.73692938399427 0.5 L 92.02464001798855 0.5 L 92.02464001798855 3.5 L 99.02464001798855 0 L 92.02464001798855 -3.5 L 92.02464001798855 -0.5 L 69.73692938399427 -0.5 Z"/><text text-anchor="middle" pointer-events="none" font-size="8px" fill="#000000" x="58.51232000899427" y="3" font-family="sans-serif">HAS</text></g><g class="relationship" transform="translate(280.78690625669884 707.7261444164948) rotate(340.1440963931884)"><path class="outline" fill="#A5ABB6" stroke="none" d="M 25 0.5 L 31.492825268142553 0.5 L 31.492825268142553 -0.5 L 25 -0.5 Z M 53.94204401814255 0.5 L 60.43486928628511 0.5 L 60.43486928628511 3.5 L 67.4348692862851 0 L 60.43486928628511 -3.5 L 60.43486928628511 -0.5 L 53.94204401814255 -0.5 Z"/><text text-anchor="middle" pointer-events="none" font-size="8px" fill="#000000" x="42.71743464314255" y="3" font-family="sans-serif">HAS</text></g><g class="relationship" transform="translate(368.010416572741 88.76162362496038) rotate(247.73228639125807)"><path class="outline" fill="#A5ABB6" stroke="none" d="M 25 0.5 L 50.324318439019024 0.5 L 50.324318439019024 -0.5 L 25 -0.5 Z M 72.77353718901902 0.5 L 98.09785562803805 0.5 L 98.09785562803805 3.5 L 105.09785562803805 0 L 98.09785562803805 -3.5 L 98.09785562803805 -0.5 L 72.77353718901902 -0.5 Z"/><text text-anchor="middle" pointer-events="none" font-size="8px" fill="#000000" x="61.548927814019024" y="3" transform="rotate(180 61.548927814019024 0)" font-family="sans-serif">HAS</text></g><g class="relationship" transform="translate(318.71181946404204 -31.633975805118485) rotate(244.3431317568802)"><path class="outline" fill="#A5ABB6" stroke="none" d="M 25 0.5 L 50.660763184585505 0.5 L 50.660763184585505 -0.5 L 25 -0.5 Z M 74.4459194345855 0.5 L 100.10668261917101 0.5 L 100.10668261917101 3.5 L 107.10668261917101 0 L 100.10668261917101 -3.5 L 100.10668261917101 -0.5 L 74.4459194345855 -0.5 Z"/><text text-anchor="middle" pointer-events="none" font-size="8px" fill="#000000" x="62.553341309585505" y="3" transform="rotate(180 62.553341309585505 0)" font-family="sans-serif">LINK</text></g><g class="relationship" transform="translate(223.9161801515979 -27.33132944680843) rotate(286.9463559881565)"><path class="outline" fill="#A5ABB6" stroke="none" d="M 25 0.5 L 49.09982395532424 0.5 L 49.09982395532424 -0.5 L 25 -0.5 Z M 72.88498020532424 0.5 L 96.98480416064848 0.5 L 96.98480416064848 3.5 L 103.98480416064848 0 L 96.98480416064848 -3.5 L 96.98480416064848 -0.5 L 72.88498020532424 -0.5 Z"/><text text-anchor="middle" pointer-events="none" font-size="8px" fill="#000000" x="60.99240208032424" y="3" font-family="sans-serif">LINK</text></g><g class="relationship" transform="translate(128.74131651252458 -88.07635170414947) rotate(334.7428670026552)"><path class="outline" fill="#A5ABB6" stroke="none" d="M 25 0.5 L 58.00999188594305 0.5 L 58.00999188594305 -0.5 L 25 -0.5 Z M 81.79514813594305 0.5 L 114.8051400218861 0.5 L 114.8051400218861 3.5 L 121.8051400218861 0 L 114.8051400218861 -3.5 L 114.8051400218861 -0.5 L 81.79514813594305 -0.5 Z"/><text text-anchor="middle" pointer-events="none" font-size="8px" fill="#000000" x="69.90257001094305" y="3" font-family="sans-serif">LINK</text></g><g class="relationship" transform="translate(189.2520518282813 -265.52055708239465) rotate(417.8130653934601)"><path class="outline" fill="#A5ABB6" stroke="none" d="M 25 0.5 L 52.433963096032656 0.5 L 52.433963096032656 -0.5 L 25 -0.5 Z M 76.21911934603266 0.5 L 103.65308244206531 0.5 L 103.65308244206531 3.5 L 110.65308244206531 0 L 103.65308244206531 -3.5 L 103.65308244206531 -0.5 L 76.21911934603266 -0.5 Z"/><text text-anchor="middle" pointer-events="none" font-size="8px" fill="#000000" x="64.32654122103266" y="3" font-family="sans-serif">LINK</text></g><g class="relationship" transform="translate(403.0366957575196 -137.18325050712795) rotate(185.46183180430205)"><path class="outline" fill="#A5ABB6" stroke="none" d="M 25 0.5 L 55.69241617754851 0.5 L 55.69241617754851 -0.5 L 25 -0.5 Z M 79.47757242754851 0.5 L 110.16998860509702 0.5 L 110.16998860509702 3.5 L 117.16998860509702 0 L 110.16998860509702 -3.5 L 110.16998860509702 -0.5 L 79.47757242754851 -0.5 Z"/><text text-anchor="middle" pointer-events="none" font-size="8px" fill="#000000" x="67.58499430254851" y="3" transform="rotate(180 67.58499430254851 0)" font-family="sans-serif">LINK</text></g><g class="relationship" transform="translate(393.24204274312063 -201.06406535373287) rotate(519.0825562909047)"><path class="outline" fill="#A5ABB6" stroke="none" d="M 25 0.5 L 60.23266561020712 0.5 L 60.23266561020712 -0.5 L 25 -0.5 Z M 73.79125936020712 0.5 L 109.02392497041424 0.5 L 109.02392497041424 3.5 L 116.02392497041424 0 L 109.02392497041424 -3.5 L 109.02392497041424 -0.5 L 73.79125936020712 -0.5 Z"/><text text-anchor="middle" pointer-events="none" font-size="8px" fill="#000000" x="67.01196248520712" y="3" transform="rotate(180 67.01196248520712 0)" font-family="sans-serif">IS</text></g><g class="relationship" transform="translate(495.15822126463155 414.5059379870989) rotate(445.8514784128261)"><path class="outline" fill="#A5ABB6" stroke="none" d="M 25 0.5 L 39.92780007372427 0.5 L 39.92780007372427 -0.5 L 25 -0.5 Z M 62.37701882372427 0.5 L 77.30481889744854 0.5 L 77.30481889744854 3.5 L 84.30481889744854 0 L 77.30481889744854 -3.5 L 77.30481889744854 -0.5 L 62.37701882372427 -0.5 Z"/><text text-anchor="middle" pointer-events="none" font-size="8px" fill="#000000" x="51.15240944872427" y="3" font-family="sans-serif">HAS</text></g><g class="relationship" transform="translate(503.06556279697486 523.5243647969502) rotate(374.66067881275444)"><path class="outline" fill="#A5ABB6" stroke="none" d="M 25 0.5 L 39.65413411692286 0.5 L 39.65413411692286 -0.5 L 25 -0.5 Z M 63.43929036692286 0.5 L 78.09342448384572 0.5 L 78.09342448384572 3.5 L 85.09342448384572 0 L 78.09342448384572 -3.5 L 78.09342448384572 -0.5 L 63.43929036692286 -0.5 Z"/><text text-anchor="middle" pointer-events="none" font-size="8px" fill="#000000" x="51.54671224192286" y="3" font-family="sans-serif">LINK</text></g><g class="relationship" transform="translate(601.8073702907934 442.016591441243) rotate(445.93789511907886)"><path class="outline" fill="#A5ABB6" stroke="none" d="M 25 0.5 L 44.544310904924714 0.5 L 44.544310904924714 -0.5 L 25 -0.5 Z M 58.102904654924714 0.5 L 77.64721555984943 0.5 L 77.64721555984943 3.5 L 84.64721555984943 0 L 77.64721555984943 -3.5 L 77.64721555984943 -0.5 L 58.102904654924714 -0.5 Z"/><text text-anchor="middle" pointer-events="none" font-size="8px" fill="#000000" x="51.323607779924714" y="3" font-family="sans-serif">IS</text></g><g class="relationship" transform="translate(495.15822126463155 414.5059379870989) rotate(374.46439693059585)"><path class="outline" fill="#A5ABB6" stroke="none" d="M 25 0.5 L 40.345521007718574 0.5 L 40.345521007718574 -0.5 L 25 -0.5 Z M 62.794739757718574 0.5 L 78.14026076543715 0.5 L 78.14026076543715 3.5 L 85.14026076543715 0 L 78.14026076543715 -3.5 L 78.14026076543715 -0.5 L 62.794739757718574 -0.5 Z"/><text text-anchor="middle" pointer-events="none" font-size="8px" fill="#000000" x="51.570130382718574" y="3" font-family="sans-serif">HAS</text></g><g class="relationship" transform="translate(682.0365866751548 249.41921190209666) rotate(344.20530639861784)"><path class="outline" fill="#A5ABB6" stroke="none" d="M 25 0.5 L 39.48321863866645 0.5 L 39.48321863866645 -0.5 L 25 -0.5 Z M 61.93243738866645 0.5 L 76.4156560273329 0.5 L 76.4156560273329 3.5 L 83.4156560273329 0 L 76.4156560273329 -3.5 L 76.4156560273329 -0.5 L 61.93243738866645 -0.5 Z"/><text text-anchor="middle" pointer-events="none" font-size="8px" fill="#000000" x="50.70782801366645" y="3" font-family="sans-serif">HAS</text></g><g class="relationship" transform="translate(786.3588151548614 219.9094318814856) rotate(447.0788748302348)"><path class="outline" fill="#A5ABB6" stroke="none" d="M 25 0.5 L 38.6010569239712 0.5 L 38.6010569239712 -0.5 L 25 -0.5 Z M 62.3862131739712 0.5 L 75.9872700979424 0.5 L 75.9872700979424 3.5 L 82.9872700979424 0 L 75.9872700979424 -3.5 L 75.9872700979424 -0.5 L 62.3862131739712 -0.5 Z"/><text text-anchor="middle" pointer-events="none" font-size="8px" fill="#000000" x="50.4936350489712" y="3" font-family="sans-serif">LINK</text></g><g class="relationship" transform="translate(163.9530604794811 413.24544788369974) rotate(188.25241939590092)"><path class="outline" fill="#A5ABB6" stroke="none" d="M 25 0.5 L 48.79315663307376 0.5 L 48.79315663307376 -0.5 L 25 -0.5 Z M 71.24237538307375 0.5 L 95.03553201614751 0.5 L 95.03553201614751 3.5 L 102.03553201614751 0 L 95.03553201614751 -3.5 L 95.03553201614751 -0.5 L 71.24237538307375 -0.5 Z"/><text text-anchor="middle" pointer-events="none" font-size="8px" fill="#000000" x="60.01776600807376" y="3" transform="rotate(180 60.01776600807376 0)" font-family="sans-serif">HAS</text></g><g class="relationship" transform="translate(163.9530604794811 413.24544788369974) rotate(482.8435967797933)"><path class="outline" fill="#A5ABB6" stroke="none" d="M 25 0.5 L 42.086639122599216 0.5 L 42.086639122599216 -0.5 L 25 -0.5 Z M 64.53585787259922 0.5 L 81.62249699519843 0.5 L 81.62249699519843 3.5 L 88.62249699519843 0 L 81.62249699519843 -3.5 L 81.62249699519843 -0.5 L 64.53585787259922 -0.5 Z"/><text text-anchor="middle" pointer-events="none" font-size="8px" fill="#000000" x="53.311248497599216" y="3" transform="rotate(180 53.311248497599216 0)" font-family="sans-serif">HAS</text></g><g class="relationship" transform="translate(-228.62397032389393 421.96532166291763) rotate(373.8797741579777)"><path class="outline" fill="#A5ABB6" stroke="none" d="M 25 0.5 L 64.22331055289361 0.5 L 64.22331055289361 -0.5 L 25 -0.5 Z M 77.78190430289361 0.5 L 117.00521485578722 0.5 L 117.00521485578722 3.5 L 124.00521485578722 0 L 117.00521485578722 -3.5 L 117.00521485578722 -0.5 L 77.78190430289361 -0.5 Z"/><text text-anchor="middle" pointer-events="none" font-size="8px" fill="#000000" x="71.00260742789361" y="3" font-family="sans-serif">IS</text></g><g class="relationship" transform="translate(-147.91278426580996 398.19766625785456) rotate(402.94424411747394)"><path class="outline" fill="#A5ABB6" stroke="none" d="M 25 0.5 L 28.28349546317272 0.5 L 28.28349546317272 -0.5 L 25 -0.5 Z M 52.06865171317272 0.5 L 55.35214717634544 0.5 L 55.35214717634544 3.5 L 62.35214717634544 0 L 55.35214717634544 -3.5 L 55.35214717634544 -0.5 L 52.06865171317272 -0.5 Z"/><text text-anchor="middle" pointer-events="none" font-size="8px" fill="#000000" x="40.17607358817272" y="3" font-family="sans-serif">LINK</text></g><g class="relationship" transform="translate(38.232939887610065 395.0114775812384) rotate(512.839151913153)"><path class="outline" fill="#A5ABB6" stroke="none" d="M 25 0.5 L 53.28144062297012 0.5 L 53.28144062297012 -0.5 L 25 -0.5 Z M 77.06659687297012 0.5 L 105.34803749594025 0.5 L 105.34803749594025 3.5 L 112.34803749594025 0 L 105.34803749594025 -3.5 L 105.34803749594025 -0.5 L 77.06659687297012 -0.5 Z"/><text text-anchor="middle" pointer-events="none" font-size="8px" fill="#000000" x="65.17401874797012" y="3" transform="rotate(180 65.17401874797012 0)" font-family="sans-serif">LINK</text></g><g class="relationship" transform="translate(38.232939887610065 395.0114775812384) rotate(225.47202629366552)"><path class="outline" fill="#A5ABB6" stroke="none" d="M 25 0.5 L 30.326540025320682 0.5 L 30.326540025320682 -0.5 L 25 -0.5 Z M 54.11169627532068 0.5 L 59.438236300641364 0.5 L 59.438236300641364 3.5 L 66.43823630064136 0 L 59.438236300641364 -3.5 L 59.438236300641364 -0.5 L 54.11169627532068 -0.5 Z"/><text text-anchor="middle" pointer-events="none" font-size="8px" fill="#000000" x="42.21911815032068" y="3" transform="rotate(180 42.21911815032068 0)" font-family="sans-serif">LINK</text></g><g class="relationship" transform="translate(38.232939887610065 395.0114775812384) rotate(225.3704419626552)"><path class="outline" fill="#A5ABB6" stroke="none" d="M 25 0.5 L 60.304708402801324 0.5 L 60.304708402801324 -0.5 L 25 -0.5 Z M 84.08986465280132 0.5 L 119.39457305560265 0.5 L 119.39457305560265 3.5 L 126.39457305560265 0 L 119.39457305560265 -3.5 L 119.39457305560265 -0.5 L 84.08986465280132 -0.5 Z"/><text text-anchor="middle" pointer-events="none" font-size="8px" fill="#000000" x="72.19728652780132" y="3" transform="rotate(180 72.19728652780132 0)" font-family="sans-serif">LINK</text></g><g class="relationship" transform="translate(38.232939887610065 395.0114775812384) rotate(484.0984398921417)"><path class="outline" fill="#A5ABB6" stroke="none" d="M 25 0.5 L 49.68383459461976 0.5 L 49.68383459461976 -0.5 L 25 -0.5 Z M 63.24242834461976 0.5 L 87.92626293923952 0.5 L 87.92626293923952 3.5 L 94.92626293923952 0 L 87.92626293923952 -3.5 L 87.92626293923952 -0.5 L 63.24242834461976 -0.5 Z"/><text text-anchor="middle" pointer-events="none" font-size="8px" fill="#000000" x="56.46313146961976" y="3" transform="rotate(180 56.46313146961976 0)" font-family="sans-serif">IS</text></g><g class="relationship" transform="translate(-147.91278426580996 398.19766625785456) rotate(330.73694106567996)"><path class="outline" fill="#A5ABB6" stroke="none" d="M 25 0.5 L 54.54445462493268 0.5 L 54.54445462493268 -0.5 L 25 -0.5 Z M 78.32961087493268 0.5 L 107.87406549986537 0.5 L 107.87406549986537 3.5 L 114.87406549986537 0 L 107.87406549986537 -3.5 L 107.87406549986537 -0.5 L 78.32961087493268 -0.5 Z"/><text text-anchor="middle" pointer-events="none" font-size="8px" fill="#000000" x="66.43703274993268" y="3" font-family="sans-serif">LINK</text></g><g class="relationship" transform="translate(-167.40578280563645 208.30884220283127) rotate(398.49609941289805)"><path class="outline" fill="#A5ABB6" stroke="none" d="M 25 0.5 L 53.14681731499885 0.5 L 53.14681731499885 -0.5 L 25 -0.5 Z M 66.70541106499886 0.5 L 94.8522283799977 0.5 L 94.8522283799977 3.5 L 101.8522283799977 0 L 94.8522283799977 -3.5 L 94.8522283799977 -0.5 L 66.70541106499886 -0.5 Z"/><text text-anchor="middle" pointer-events="none" font-size="8px" fill="#000000" x="59.92611418999885" y="3" font-family="sans-serif">IS</text></g><g class="relationship" transform="translate(-147.91278426580996 398.19766625785456) rotate(305.72654593028244)"><path class="outline" fill="#A5ABB6" stroke="none" d="M 25 0.5 L 52.928699898952914 0.5 L 52.928699898952914 -0.5 L 25 -0.5 Z M 76.71385614895291 0.5 L 104.64255604790583 0.5 L 104.64255604790583 3.5 L 111.64255604790583 0 L 104.64255604790583 -3.5 L 104.64255604790583 -0.5 L 76.71385614895291 -0.5 Z"/><text text-anchor="middle" pointer-events="none" font-size="8px" fill="#000000" x="64.82127802395291" y="3" font-family="sans-serif">LINK</text></g><g class="relationship" transform="translate(-121.49130136668491 597.6912053793338) rotate(311.8205156906663)"><path class="outline" fill="#A5ABB6" stroke="none" d="M 25 0.5 L 53.96232210746557 0.5 L 53.96232210746557 -0.5 L 25 -0.5 Z M 77.74747835746557 0.5 L 106.70980046493113 0.5 L 106.70980046493113 3.5 L 113.70980046493113 0 L 106.70980046493113 -3.5 L 106.70980046493113 -0.5 L 77.74747835746557 -0.5 Z"/><text text-anchor="middle" pointer-events="none" font-size="8px" fill="#000000" x="65.85490023246557" y="3" font-family="sans-serif">LINK</text></g><g class="relationship" transform="translate(18.1124241539085 617.3437616693499) rotate(249.04566875542224)"><path class="outline" fill="#A5ABB6" stroke="none" d="M 25 0.5 L 50.47570580764112 0.5 L 50.47570580764112 -0.5 L 25 -0.5 Z M 74.26086205764112 0.5 L 99.73656786528224 0.5 L 99.73656786528224 3.5 L 106.73656786528224 0 L 99.73656786528224 -3.5 L 99.73656786528224 -0.5 L 74.26086205764112 -0.5 Z"/><text text-anchor="middle" pointer-events="none" font-size="8px" fill="#000000" x="62.36828393264112" y="3" transform="rotate(180 62.36828393264112 0)" font-family="sans-serif">LINK</text></g><g class="relationship" transform="translate(-147.91278426580996 398.19766625785456) rotate(398.94988368179884)"><path class="outline" fill="#A5ABB6" stroke="none" d="M 25 0.5 L 66.17285746359782 0.5 L 66.17285746359782 -0.5 L 25 -0.5 Z M 79.73145121359782 0.5 L 120.90430867719564 0.5 L 120.90430867719564 3.5 L 127.90430867719564 0 L 120.90430867719564 -3.5 L 120.90430867719564 -0.5 L 79.73145121359782 -0.5 Z"/><text text-anchor="middle" pointer-events="none" font-size="8px" fill="#000000" x="72.95215433859782" y="3" font-family="sans-serif">IS</text></g><g class="relationship" transform="translate(-96.24977728194555 367.96258784656635) rotate(421.9770535965176)"><path class="outline" fill="#A5ABB6" stroke="none" d="M 25 0.5 L 56.17668927130656 0.5 L 56.17668927130656 -0.5 L 25 -0.5 Z M 79.96184552130656 0.5 L 111.13853479261311 0.5 L 111.13853479261311 3.5 L 118.13853479261311 0 L 111.13853479261311 -3.5 L 111.13853479261311 -0.5 L 79.96184552130656 -0.5 Z"/><text text-anchor="middle" pointer-events="none" font-size="8px" fill="#000000" x="68.06926739630656" y="3" font-family="sans-serif">LINK</text></g><g class="relationship" transform="translate(102.33016662090768 508.70586259010497) rotate(186.2514716783012)"><path class="outline" fill="#A5ABB6" stroke="none" d="M 25 0.5 L 50.66516257060658 0.5 L 50.66516257060658 -0.5 L 25 -0.5 Z M 74.45031882060658 0.5 L 100.11548139121317 0.5 L 100.11548139121317 3.5 L 107.11548139121317 0 L 100.11548139121317 -3.5 L 100.11548139121317 -0.5 L 74.45031882060658 -0.5 Z"/><text text-anchor="middle" pointer-events="none" font-size="8px" fill="#000000" x="62.55774069560658" y="3" transform="rotate(180 62.55774069560658 0)" font-family="sans-serif">LINK</text></g><g class="relationship" transform="translate(533.7956701370723 -179.7757527530872) rotate(521.957865263757)"><path class="outline" fill="#A5ABB6" stroke="none" d="M 25 0.5 L 54.03590005513105 0.5 L 54.03590005513105 -0.5 L 25 -0.5 Z M 76.48511880513105 0.5 L 105.5210188602621 0.5 L 105.5210188602621 3.5 L 112.5210188602621 0 L 105.5210188602621 -3.5 L 105.5210188602621 -0.5 L 76.48511880513105 -0.5 Z"/><text text-anchor="middle" pointer-events="none" font-size="8px" fill="#000000" x="65.26050943013105" y="3" transform="rotate(180 65.26050943013105 0)" font-family="sans-serif">HAS</text></g><g class="relationship" transform="translate(533.7956701370723 -179.7757527530872) rotate(437.33389377009667)"><path class="outline" fill="#A5ABB6" stroke="none" d="M 25 0.5 L 51.85278479759998 0.5 L 51.85278479759998 -0.5 L 25 -0.5 Z M 74.30200354759998 0.5 L 101.15478834519996 0.5 L 101.15478834519996 3.5 L 108.15478834519996 0 L 101.15478834519996 -3.5 L 101.15478834519996 -0.5 L 74.30200354759998 -0.5 Z"/><text text-anchor="middle" pointer-events="none" font-size="8px" fill="#000000" x="63.07739417259998" y="3" font-family="sans-serif">HAS</text></g><g class="relationship" transform="translate(533.7956701370723 -179.7757527530872) rotate(327.92848165152486)"><path class="outline" fill="#A5ABB6" stroke="none" d="M 25 0.5 L 52.38972204119139 0.5 L 52.38972204119139 -0.5 L 25 -0.5 Z M 74.83894079119139 0.5 L 102.22866283238278 0.5 L 102.22866283238278 3.5 L 109.22866283238278 0 L 102.22866283238278 -3.5 L 102.22866283238278 -0.5 L 74.83894079119139 -0.5 Z"/><text text-anchor="middle" pointer-events="none" font-size="8px" fill="#000000" x="63.61433141619139" y="3" font-family="sans-serif">HAS</text></g><g class="relationship" transform="translate(533.7956701370723 -179.7757527530872) rotate(388.94409253692083)"><path class="outline" fill="#A5ABB6" stroke="none" d="M 25 0.5 L 49.42105941538962 0.5 L 49.42105941538962 -0.5 L 25 -0.5 Z M 71.87027816538962 0.5 L 96.29133758077924 0.5 L 96.29133758077924 3.5 L 103.29133758077924 0 L 96.29133758077924 -3.5 L 96.29133758077924 -0.5 L 71.87027816538962 -0.5 Z"/><text text-anchor="middle" pointer-events="none" font-size="8px" fill="#000000" x="60.64566879038962" y="3" font-family="sans-serif">HAS</text></g><g class="relationship" transform="translate(533.7956701370723 -179.7757527530872) rotate(263.1795167234084)"><path class="outline" fill="#A5ABB6" stroke="none" d="M 25 0.5 L 53.5743735048419 0.5 L 53.5743735048419 -0.5 L 25 -0.5 Z M 76.0235922548419 0.5 L 104.5979657596838 0.5 L 104.5979657596838 3.5 L 111.5979657596838 0 L 104.5979657596838 -3.5 L 104.5979657596838 -0.5 L 76.0235922548419 -0.5 Z"/><text text-anchor="middle" pointer-events="none" font-size="8px" fill="#000000" x="64.7989828798419" y="3" transform="rotate(180 64.7989828798419 0)" font-family="sans-serif">HAS</text></g><g class="relationship" transform="translate(533.7956701370723 -179.7757527530872) rotate(188.61258311239783)"><path class="outline" fill="#A5ABB6" stroke="none" d="M 25 0.5 L 56.353717889681405 0.5 L 56.353717889681405 -0.5 L 25 -0.5 Z M 78.8029366396814 0.5 L 110.15665452936281 0.5 L 110.15665452936281 3.5 L 117.15665452936281 0 L 110.15665452936281 -3.5 L 110.15665452936281 -0.5 L 78.8029366396814 -0.5 Z"/><text text-anchor="middle" pointer-events="none" font-size="8px" fill="#000000" x="67.5783272646814" y="3" transform="rotate(180 67.5783272646814 0)" font-family="sans-serif">HAS</text></g><g class="relationship" transform="translate(533.7956701370723 -179.7757527530872) rotate(290.0456380648541)"><path class="outline" fill="#A5ABB6" stroke="none" d="M 25 0.5 L 38.62305075690363 0.5 L 38.62305075690363 -0.5 L 25 -0.5 Z M 61.07226950690363 0.5 L 74.69532026380726 0.5 L 74.69532026380726 3.5 L 81.69532026380726 0 L 74.69532026380726 -3.5 L 74.69532026380726 -0.5 L 61.07226950690363 -0.5 Z"/><text text-anchor="middle" pointer-events="none" font-size="8px" fill="#000000" x="49.84766013190363" y="3" font-family="sans-serif">HAS</text></g><g class="relationship" transform="translate(562.9923981775472 -49.86136274572296) rotate(428.2146739404825)"><path class="outline" fill="#A5ABB6" stroke="none" d="M 25 0.5 L 45.98949908145215 0.5 L 45.98949908145215 -0.5 L 25 -0.5 Z M 69.77465533145215 0.5 L 90.7641544129043 0.5 L 90.7641544129043 3.5 L 97.7641544129043 0 L 90.7641544129043 -3.5 L 90.7641544129043 -0.5 L 69.77465533145215 -0.5 Z"/><text text-anchor="middle" pointer-events="none" font-size="8px" fill="#000000" x="57.88207720645215" y="3" font-family="sans-serif">LINK</text></g><g class="relationship" transform="translate(647.5391563560372 -251.0481405938607) rotate(399.71989972466565)"><path class="outline" fill="#A5ABB6" stroke="none" d="M 25 0.5 L 47.16437244545934 0.5 L 47.16437244545934 -0.5 L 25 -0.5 Z M 70.94952869545935 0.5 L 93.11390114091868 0.5 L 93.11390114091868 3.5 L 100.11390114091868 0 L 93.11390114091868 -3.5 L 93.11390114091868 -0.5 L 70.94952869545935 -0.5 Z"/><text text-anchor="middle" pointer-events="none" font-size="8px" fill="#000000" x="59.05695057045934" y="3" font-family="sans-serif">LINK</text></g><g class="relationship" transform="translate(647.5391563560372 -251.0481405938607) rotate(247.51036528159688)"><path class="outline" fill="#A5ABB6" stroke="none" d="M 25 0.5 L 56.40889699508821 0.5 L 56.40889699508821 -0.5 L 25 -0.5 Z M 80.19405324508821 0.5 L 111.60295024017643 0.5 L 111.60295024017643 3.5 L 118.60295024017643 0 L 111.60295024017643 -3.5 L 111.60295024017643 -0.5 L 80.19405324508821 -0.5 Z"/><text text-anchor="middle" pointer-events="none" font-size="8px" fill="#000000" x="68.30147512008821" y="3" transform="rotate(180 68.30147512008821 0)" font-family="sans-serif">LINK</text></g><g class="relationship" transform="translate(647.5391563560372 -251.0481405938607) rotate(269.52493728554725)"><path class="outline" fill="#A5ABB6" stroke="none" d="M 25 0.5 L 37.92267748171672 0.5 L 37.92267748171672 -0.5 L 25 -0.5 Z M 61.70783373171672 0.5 L 74.63051121343344 0.5 L 74.63051121343344 3.5 L 81.63051121343344 0 L 74.63051121343344 -3.5 L 74.63051121343344 -0.5 L 61.70783373171672 -0.5 Z"/><text text-anchor="middle" pointer-events="none" font-size="8px" fill="#000000" x="49.81525560671672" y="3" transform="rotate(180 49.81525560671672 0)" font-family="sans-serif">LINK</text></g><g class="relationship" transform="translate(646.0624386149836 -117.68839499168371) rotate(331.3396798295179)"><path class="outline" fill="#A5ABB6" stroke="none" d="M 25 0.5 L 45.39815364584108 0.5 L 45.39815364584108 -0.5 L 25 -0.5 Z M 58.95674739584108 0.5 L 79.35490104168215 0.5 L 79.35490104168215 3.5 L 86.35490104168215 0 L 79.35490104168215 -3.5 L 79.35490104168215 -0.5 L 58.95674739584108 -0.5 Z"/><text text-anchor="middle" pointer-events="none" font-size="8px" fill="#000000" x="52.17745052084108" y="3" font-family="sans-serif">IS</text></g><g class="relationship" transform="translate(517.5734396272989 -315.40703043995234) rotate(317.6807685748927)"><path class="outline" fill="#A5ABB6" stroke="none" d="M 25 0.5 L 40.460983067787105 0.5 L 40.460983067787105 -0.5 L 25 -0.5 Z M 54.019576817787105 0.5 L 69.48055988557421 0.5 L 69.48055988557421 3.5 L 76.48055988557421 0 L 69.48055988557421 -3.5 L 69.48055988557421 -0.5 L 54.019576817787105 -0.5 Z"/><text text-anchor="middle" pointer-events="none" font-size="8px" fill="#000000" x="47.240279942787105" y="3" font-family="sans-serif">IS</text></g><g class="relationship" transform="translate(570.3674684708336 -280.0074589783685) rotate(282.10266924296)"><path class="outline" fill="#A5ABB6" stroke="none" d="M 25 0.5 L 37.64754357087729 0.5 L 37.64754357087729 -0.5 L 25 -0.5 Z M 61.43269982087729 0.5 L 74.08024339175458 0.5 L 74.08024339175458 3.5 L 81.08024339175458 0 L 74.08024339175458 -3.5 L 74.08024339175458 -0.5 L 61.43269982087729 -0.5 Z"/><text text-anchor="middle" pointer-events="none" font-size="8px" fill="#000000" x="49.54012169587729" y="3" font-family="sans-serif">LINK</text></g><g class="relationship" transform="translate(517.5734396272989 -315.40703043995234) rotate(341.8688925336402)"><path class="outline" fill="#A5ABB6" stroke="none" d="M 25 0.5 L 52.52031108476697 0.5 L 52.52031108476697 -0.5 L 25 -0.5 Z M 76.30546733476697 0.5 L 103.82577841953395 0.5 L 103.82577841953395 3.5 L 110.82577841953395 0 L 103.82577841953395 -3.5 L 103.82577841953395 -0.5 L 76.30546733476697 -0.5 Z"/><text text-anchor="middle" pointer-events="none" font-size="8px" fill="#000000" x="64.41288920976697" y="3" font-family="sans-serif">LINK</text></g><g class="relationship" transform="translate(-160.86668490452595 -510.70629234390253) rotate(357.1300346022599)"><path class="outline" fill="#A5ABB6" stroke="none" d="M 25 0.5 L 45.118137705836666 0.5 L 45.118137705836666 -0.5 L 25 -0.5 Z M 67.56735645583666 0.5 L 87.68549416167333 0.5 L 87.68549416167333 3.5 L 94.68549416167333 0 L 87.68549416167333 -3.5 L 87.68549416167333 -0.5 L 67.56735645583666 -0.5 Z"/><text text-anchor="middle" pointer-events="none" font-size="8px" fill="#000000" x="56.342747080836666" y="3" font-family="sans-serif">HAS</text></g><g class="relationship" transform="translate(-160.86668490452595 -510.70629234390253) rotate(284.87810687075626)"><path class="outline" fill="#A5ABB6" stroke="none" d="M 25 0.5 L 40.966404900169536 0.5 L 40.966404900169536 -0.5 L 25 -0.5 Z M 63.415623650169536 0.5 L 79.38202855033907 0.5 L 79.38202855033907 3.5 L 86.38202855033907 0 L 79.38202855033907 -3.5 L 79.38202855033907 -0.5 L 63.415623650169536 -0.5 Z"/><text text-anchor="middle" pointer-events="none" font-size="8px" fill="#000000" x="52.191014275169536" y="3" font-family="sans-serif">HAS</text></g><g class="relationship" transform="translate(-160.86668490452595 -510.70629234390253) rotate(527.230586413667)"><path class="outline" fill="#A5ABB6" stroke="none" d="M 25 0.5 L 52.95963254763949 0.5 L 52.95963254763949 -0.5 L 25 -0.5 Z M 75.40885129763949 0.5 L 103.36848384527897 0.5 L 103.36848384527897 3.5 L 110.36848384527897 0 L 103.36848384527897 -3.5 L 103.36848384527897 -0.5 L 75.40885129763949 -0.5 Z"/><text text-anchor="middle" pointer-events="none" font-size="8px" fill="#000000" x="64.18424192263949" y="3" transform="rotate(180 64.18424192263949 0)" font-family="sans-serif">HAS</text></g><g class="relationship" transform="translate(-160.86668490452595 -510.70629234390253) rotate(488.1507331039539)"><path class="outline" fill="#A5ABB6" stroke="none" d="M 25 0.5 L 41.93684632948455 0.5 L 41.93684632948455 -0.5 L 25 -0.5 Z M 64.38606507948455 0.5 L 81.3229114089691 0.5 L 81.3229114089691 3.5 L 88.3229114089691 0 L 81.3229114089691 -3.5 L 81.3229114089691 -0.5 L 64.38606507948455 -0.5 Z"/><text text-anchor="middle" pointer-events="none" font-size="8px" fill="#000000" x="53.16145570448455" y="3" transform="rotate(180 53.16145570448455 0)" font-family="sans-serif">HAS</text></g><g class="relationship" transform="translate(-41.33130736059778 -516.6988734367616) rotate(486.79980114109014)"><path class="outline" fill="#A5ABB6" stroke="none" d="M 25 0.5 L 48.26548013869696 0.5 L 48.26548013869696 -0.5 L 25 -0.5 Z M 61.82407388869696 0.5 L 85.08955402739392 0.5 L 85.08955402739392 3.5 L 92.08955402739392 0 L 85.08955402739392 -3.5 L 85.08955402739392 -0.5 L 61.82407388869696 -0.5 Z"/><text text-anchor="middle" pointer-events="none" font-size="8px" fill="#000000" x="55.04477701369696" y="3" transform="rotate(180 55.04477701369696 0)" font-family="sans-serif">IS</text></g><g class="relationship" transform="translate(-230.8699226170925 -421.5904746684586) rotate(359.35178806502915)"><path class="outline" fill="#A5ABB6" stroke="none" d="M 25 0.5 L 44.31101000858978 0.5 L 44.31101000858978 -0.5 L 25 -0.5 Z M 68.09616625858979 0.5 L 87.40717626717957 0.5 L 87.40717626717957 3.5 L 94.40717626717957 0 L 87.40717626717957 -3.5 L 87.40717626717957 -0.5 L 68.09616625858979 -0.5 Z"/><text text-anchor="middle" pointer-events="none" font-size="8px" fill="#000000" x="56.20358813358978" y="3" font-family="sans-serif">LINK</text></g><g class="relationship" transform="translate(-132.26784372994115 -618.3541560823875) rotate(505.43046320526)"><path class="outline" fill="#A5ABB6" stroke="none" d="M 25 0.5 L 49.38998541906183 0.5 L 49.38998541906183 -0.5 L 25 -0.5 Z M 62.94857916906183 0.5 L 87.33856458812366 0.5 L 87.33856458812366 3.5 L 94.33856458812366 0 L 87.33856458812366 -3.5 L 87.33856458812366 -0.5 L 62.94857916906183 -0.5 Z"/><text text-anchor="middle" pointer-events="none" font-size="8px" fill="#000000" x="56.16928229406183" y="3" transform="rotate(180 56.16928229406183 0)" font-family="sans-serif">IS</text></g><g class="relationship" transform="translate(-230.8699226170925 -421.5904746684586) rotate(270.1483558014613)"><path class="outline" fill="#A5ABB6" stroke="none" d="M 25 0.5 L 49.13276908147971 0.5 L 49.13276908147971 -0.5 L 25 -0.5 Z M 72.91792533147971 0.5 L 97.05069441295942 0.5 L 97.05069441295942 3.5 L 104.05069441295942 0 L 97.05069441295942 -3.5 L 97.05069441295942 -0.5 L 72.91792533147971 -0.5 Z"/><text text-anchor="middle" pointer-events="none" font-size="8px" fill="#000000" x="61.02534720647971" y="3" font-family="sans-serif">LINK</text></g><g class="relationship" transform="translate(-292.88716574527257 -480.786080828146) rotate(477.8308599905736)"><path class="outline" fill="#A5ABB6" stroke="none" d="M 25 0.5 L 45.98106732506343 0.5 L 45.98106732506343 -0.5 L 25 -0.5 Z M 59.53966107506343 0.5 L 80.52072840012686 0.5 L 80.52072840012686 3.5 L 87.52072840012686 0 L 80.52072840012686 -3.5 L 80.52072840012686 -0.5 L 59.53966107506343 -0.5 Z"/><text text-anchor="middle" pointer-events="none" font-size="8px" fill="#000000" x="52.76036420006343" y="3" transform="rotate(180 52.76036420006343 0)" font-family="sans-serif">IS</text></g><g class="relationship" transform="translate(-230.8699226170925 -421.5904746684586) rotate(520.6130236219672)"><path class="outline" fill="#A5ABB6" stroke="none" d="M 25 0.5 L 45.32471017411542 0.5 L 45.32471017411542 -0.5 L 25 -0.5 Z M 69.10986642411541 0.5 L 89.43457659823083 0.5 L 89.43457659823083 3.5 L 96.43457659823083 0 L 89.43457659823083 -3.5 L 89.43457659823083 -0.5 L 69.10986642411541 -0.5 Z"/><text text-anchor="middle" pointer-events="none" font-size="8px" fill="#000000" x="57.21728829911542" y="3" transform="rotate(180 57.21728829911542 0)" font-family="sans-serif">LINK</text></g><g class="relationship" transform="translate(46.87053147807953 -281.1703130474447) rotate(366.2724432508983)"><path class="outline" fill="#A5ABB6" stroke="none" d="M 25 0.5 L 56.89489250647175 0.5 L 56.89489250647175 -0.5 L 25 -0.5 Z M 79.34411125647175 0.5 L 111.2390037629435 0.5 L 111.2390037629435 3.5 L 118.2390037629435 0 L 111.2390037629435 -3.5 L 111.2390037629435 -0.5 L 79.34411125647175 -0.5 Z"/><text text-anchor="middle" pointer-events="none" font-size="8px" fill="#000000" x="68.11950188147175" y="3" font-family="sans-serif">HAS</text></g><g class="relationship" transform="translate(189.2520518282813 -265.52055708239465) rotate(299.3147702871727)"><path class="outline" fill="#A5ABB6" stroke="none" d="M 25 0.5 L 46.86950688092182 0.5 L 46.86950688092182 -0.5 L 25 -0.5 Z M 70.65466313092182 0.5 L 92.52417001184364 0.5 L 92.52417001184364 3.5 L 99.52417001184364 0 L 92.52417001184364 -3.5 L 92.52417001184364 -0.5 L 70.65466313092182 -0.5 Z"/><text text-anchor="middle" pointer-events="none" font-size="8px" fill="#000000" x="58.76208500592182" y="3" font-family="sans-serif">LINK</text></g><g class="relationship" transform="translate(189.2520518282813 -265.52055708239465) rotate(259.3721151635916)"><path class="outline" fill="#A5ABB6" stroke="none" d="M 25 0.5 L 46.769356613189316 0.5 L 46.769356613189316 -0.5 L 25 -0.5 Z M 70.55451286318932 0.5 L 92.32386947637863 0.5 L 92.32386947637863 3.5 L 99.32386947637863 0 L 92.32386947637863 -3.5 L 92.32386947637863 -0.5 L 70.55451286318932 -0.5 Z"/><text text-anchor="middle" pointer-events="none" font-size="8px" fill="#000000" x="58.661934738189316" y="3" transform="rotate(180 58.661934738189316 0)" font-family="sans-serif">LINK</text></g><g class="relationship" transform="translate(189.2520518282813 -265.52055708239465) rotate(512.6516528717236)"><path class="outline" fill="#A5ABB6" stroke="none" d="M 25 0.5 L 37.78052475071673 0.5 L 37.78052475071673 -0.5 L 25 -0.5 Z M 61.56568100071673 0.5 L 74.34620575143346 0.5 L 74.34620575143346 3.5 L 81.34620575143346 0 L 74.34620575143346 -3.5 L 74.34620575143346 -0.5 L 61.56568100071673 -0.5 Z"/><text text-anchor="middle" pointer-events="none" font-size="8px" fill="#000000" x="49.67310287571673" y="3" transform="rotate(180 49.67310287571673 0)" font-family="sans-serif">LINK</text></g><g class="relationship" transform="translate(46.87053147807953 -281.1703130474447) rotate(521.6144127816627)"><path class="outline" fill="#A5ABB6" stroke="none" d="M 25 0.5 L 55.00200381567484 0.5 L 55.00200381567484 -0.5 L 25 -0.5 Z M 77.45122256567484 0.5 L 107.45322638134968 0.5 L 107.45322638134968 3.5 L 114.45322638134968 0 L 107.45322638134968 -3.5 L 107.45322638134968 -0.5 L 77.45122256567484 -0.5 Z"/><text text-anchor="middle" pointer-events="none" font-size="8px" fill="#000000" x="66.22661319067484" y="3" transform="rotate(180 66.22661319067484 0)" font-family="sans-serif">HAS</text></g><g class="relationship" transform="translate(-85.46435841416795 -237.18532395599786) rotate(524.7201823784142)"><path class="outline" fill="#A5ABB6" stroke="none" d="M 25 0.5 L 47.41149794488616 0.5 L 47.41149794488616 -0.5 L 25 -0.5 Z M 71.19665419488615 0.5 L 93.60815213977232 0.5 L 93.60815213977232 3.5 L 100.60815213977232 0 L 93.60815213977232 -3.5 L 93.60815213977232 -0.5 L 71.19665419488615 -0.5 Z"/><text text-anchor="middle" pointer-events="none" font-size="8px" fill="#000000" x="59.30407606988616" y="3" transform="rotate(180 59.30407606988616 0)" font-family="sans-serif">LINK</text></g><g class="relationship" transform="translate(-225.84611790028987 308.1446378148354) rotate(451.3980554845848)"><path class="outline" fill="#A5ABB6" stroke="none" d="M 25 0.5 L 42.20267875585253 0.5 L 42.20267875585253 -0.5 L 25 -0.5 Z M 64.65189750585253 0.5 L 81.85457626170506 0.5 L 81.85457626170506 3.5 L 88.85457626170506 0 L 81.85457626170506 -3.5 L 81.85457626170506 -0.5 L 64.65189750585253 -0.5 Z"/><text text-anchor="middle" pointer-events="none" font-size="8px" fill="#000000" x="53.42728813085253" y="3" transform="rotate(180 53.42728813085253 0)" font-family="sans-serif">HAS</text></g><g class="relationship" transform="translate(-225.84611790028987 308.1446378148354) rotate(300.34319304829876)"><path class="outline" fill="#A5ABB6" stroke="none" d="M 25 0.5 L 43.11667962225792 0.5 L 43.11667962225792 -0.5 L 25 -0.5 Z M 65.56589837225792 0.5 L 83.68257799451584 0.5 L 83.68257799451584 3.5 L 90.68257799451584 0 L 83.68257799451584 -3.5 L 83.68257799451584 -0.5 L 65.56589837225792 -0.5 Z"/><text text-anchor="middle" pointer-events="none" font-size="8px" fill="#000000" x="54.34128899725792" y="3" font-family="sans-serif">HAS</text></g><g class="relationship" transform="translate(-225.84611790028987 308.1446378148354) rotate(409.12656280314866)"><path class="outline" fill="#A5ABB6" stroke="none" d="M 25 0.5 L 44.82191114287404 0.5 L 44.82191114287404 -0.5 L 25 -0.5 Z M 67.27112989287404 0.5 L 87.09304103574809 0.5 L 87.09304103574809 3.5 L 94.09304103574809 0 L 87.09304103574809 -3.5 L 87.09304103574809 -0.5 L 67.27112989287404 -0.5 Z"/><text text-anchor="middle" pointer-events="none" font-size="8px" fill="#000000" x="56.04652051787404" y="3" font-family="sans-serif">HAS</text></g><g class="relationship" transform="translate(-225.84611790028987 308.1446378148354) rotate(384.7766911400761)"><path class="outline" fill="#A5ABB6" stroke="none" d="M 25 0.5 L 56.64309804170314 0.5 L 56.64309804170314 -0.5 L 25 -0.5 Z M 79.09231679170314 0.5 L 110.73541483340628 0.5 L 110.73541483340628 3.5 L 117.73541483340628 0 L 110.73541483340628 -3.5 L 110.73541483340628 -0.5 L 79.09231679170314 -0.5 Z"/><text text-anchor="middle" pointer-events="none" font-size="8px" fill="#000000" x="67.86770741670314" y="3" font-family="sans-serif">HAS</text></g><g class="relationship" transform="translate(-504.48375819638403 -49.891910007629484) rotate(497.5258084785158)"><path class="outline" fill="#A5ABB6" stroke="none" d="M 25 0.5 L 48.58925786597845 0.5 L 48.58925786597845 -0.5 L 25 -0.5 Z M 71.03847661597845 0.5 L 94.6277344819569 0.5 L 94.6277344819569 3.5 L 101.6277344819569 0 L 94.6277344819569 -3.5 L 94.6277344819569 -0.5 L 71.03847661597845 -0.5 Z"/><text text-anchor="middle" pointer-events="none" font-size="8px" fill="#000000" x="59.81386724097845" y="3" transform="rotate(180 59.81386724097845 0)" font-family="sans-serif">HAS</text></g><g class="relationship" transform="translate(-504.48375819638403 -49.891910007629484) rotate(453.9610497059144)"><path class="outline" fill="#A5ABB6" stroke="none" d="M 25 0.5 L 32.350210787532184 0.5 L 32.350210787532184 -0.5 L 25 -0.5 Z M 54.799429537532184 0.5 L 62.14964032506437 0.5 L 62.14964032506437 3.5 L 69.14964032506437 0 L 62.14964032506437 -3.5 L 62.14964032506437 -0.5 L 54.799429537532184 -0.5 Z"/><text text-anchor="middle" pointer-events="none" font-size="8px" fill="#000000" x="43.574820162532184" y="3" transform="rotate(180 43.574820162532184 0)" font-family="sans-serif">HAS</text></g><g class="relationship" transform="translate(-597.8820422663409 35.61448550066342) rotate(277.5947684792021)"><path class="outline" fill="#A5ABB6" stroke="none" d="M 25 0.5 L 31.850693905934477 0.5 L 31.850693905934477 -0.5 L 25 -0.5 Z M 55.63585015593448 0.5 L 62.486544061868955 0.5 L 62.486544061868955 3.5 L 69.48654406186895 0 L 62.486544061868955 -3.5 L 62.486544061868955 -0.5 L 55.63585015593448 -0.5 Z"/><text text-anchor="middle" pointer-events="none" font-size="8px" fill="#000000" x="43.74327203093448" y="3" font-family="sans-serif">LINK</text></g><g class="relationship" transform="translate(-510.98745555798445 44.032829512731695) rotate(233.91041641706926)"><path class="outline" fill="#A5ABB6" stroke="none" d="M 25 0.5 L 52.878973179173926 0.5 L 52.878973179173926 -0.5 L 25 -0.5 Z M 66.43756692917393 0.5 L 94.31654010834785 0.5 L 94.31654010834785 3.5 L 101.31654010834785 0 L 94.31654010834785 -3.5 L 94.31654010834785 -0.5 L 66.43756692917393 -0.5 Z"/><text text-anchor="middle" pointer-events="none" font-size="8px" fill="#000000" x="59.658270054173926" y="3" transform="rotate(180 59.658270054173926 0)" font-family="sans-serif">IS</text></g><g class="relationship" transform="translate(-6.161521531889722 -33.82376851476857) rotate(532.0016181231381)"><path class="outline" fill="#A5ABB6" stroke="none" d="M 25 0.5 L 49.5404824553528 0.5 L 49.5404824553528 -0.5 L 25 -0.5 Z M 71.9897012053528 0.5 L 96.5301836607056 0.5 L 96.5301836607056 3.5 L 103.5301836607056 0 L 96.5301836607056 -3.5 L 96.5301836607056 -0.5 L 71.9897012053528 -0.5 Z"/><text text-anchor="middle" pointer-events="none" font-size="8px" fill="#000000" x="60.7650918303528" y="3" transform="rotate(180 60.7650918303528 0)" font-family="sans-serif">HAS</text></g><g class="relationship" transform="translate(-6.161521531889722 -33.82376851476857) rotate(338.0919602030326)"><path class="outline" fill="#A5ABB6" stroke="none" d="M 25 0.5 L 57.9770386378858 0.5 L 57.9770386378858 -0.5 L 25 -0.5 Z M 80.4262573878858 0.5 L 113.4032960257716 0.5 L 113.4032960257716 3.5 L 120.4032960257716 0 L 113.4032960257716 -3.5 L 113.4032960257716 -0.5 L 80.4262573878858 -0.5 Z"/><text text-anchor="middle" pointer-events="none" font-size="8px" fill="#000000" x="69.2016480128858" y="3" font-family="sans-serif">HAS</text></g><g class="relationship" transform="translate(-133.44136341356244 -15.939418863995547) rotate(539.1234075098283)"><path class="outline" fill="#A5ABB6" stroke="none" d="M 25 0.5 L 44.019938181854805 0.5 L 44.019938181854805 -0.5 L 25 -0.5 Z M 67.8050944318548 0.5 L 86.82503261370961 0.5 L 86.82503261370961 3.5 L 93.82503261370961 0 L 86.82503261370961 -3.5 L 86.82503261370961 -0.5 L 67.8050944318548 -0.5 Z"/><text text-anchor="middle" pointer-events="none" font-size="8px" fill="#000000" x="55.912516306854805" y="3" transform="rotate(180 55.912516306854805 0)" font-family="sans-serif">LINK</text></g><g class="relationship" transform="translate(-566.9363369038889 257.39067691575315) rotate(422.598799006523)"><path class="outline" fill="#A5ABB6" stroke="none" d="M 25 0.5 L 36.976429933236226 0.5 L 36.976429933236226 -0.5 L 25 -0.5 Z M 59.425648683236226 0.5 L 71.40207861647245 0.5 L 71.40207861647245 3.5 L 78.40207861647245 0 L 71.40207861647245 -3.5 L 71.40207861647245 -0.5 L 59.425648683236226 -0.5 Z"/><text text-anchor="middle" pointer-events="none" font-size="8px" fill="#000000" x="48.201039308236226" y="3" font-family="sans-serif">HAS</text></g><g class="relationship" transform="translate(-519.3487983013689 349.19163569048936) rotate(457.062283340458)"><path class="outline" fill="#A5ABB6" stroke="none" d="M 25 0.5 L 42.47770407868744 0.5 L 42.47770407868744 -0.5 L 25 -0.5 Z M 56.03629782868744 0.5 L 73.51400190737488 0.5 L 73.51400190737488 3.5 L 80.51400190737488 0 L 73.51400190737488 -3.5 L 73.51400190737488 -0.5 L 56.03629782868744 -0.5 Z"/><text text-anchor="middle" pointer-events="none" font-size="8px" fill="#000000" x="49.25700095368744" y="3" transform="rotate(180 49.25700095368744 0)" font-family="sans-serif">IS</text></g><g class="relationship" transform="translate(35.709269806354044 737.1725424322232) rotate(261.64583071602397)"><path class="outline" fill="#A5ABB6" stroke="none" d="M 25 0.5 L 45.83235900196044 0.5 L 45.83235900196044 -0.5 L 25 -0.5 Z M 68.28157775196044 0.5 L 89.11393675392088 0.5 L 89.11393675392088 3.5 L 96.11393675392088 0 L 89.11393675392088 -3.5 L 89.11393675392088 -0.5 L 68.28157775196044 -0.5 Z"/><text text-anchor="middle" pointer-events="none" font-size="8px" fill="#000000" x="57.05696837696044" y="3" transform="rotate(180 57.05696837696044 0)" font-family="sans-serif">HAS</text></g><g class="relationship" transform="translate(-243.18780985028107 643.7157809598029) rotate(339.2838119888419)"><path class="outline" fill="#A5ABB6" stroke="none" d="M 25 0.5 L 50.329794270065236 0.5 L 50.329794270065236 -0.5 L 25 -0.5 Z M 72.77901302006524 0.5 L 98.10880729013047 0.5 L 98.10880729013047 3.5 L 105.10880729013047 0 L 98.10880729013047 -3.5 L 98.10880729013047 -0.5 L 72.77901302006524 -0.5 Z"/><text text-anchor="middle" pointer-events="none" font-size="8px" fill="#000000" x="61.554403645065236" y="3" font-family="sans-serif">HAS</text></g><g class="relationship" transform="translate(-243.18780985028107 643.7157809598029) rotate(534.7830291671137)"><path class="outline" fill="#A5ABB6" stroke="none" d="M 25 0.5 L 44.058674800190296 0.5 L 44.058674800190296 -0.5 L 25 -0.5 Z M 66.50789355019029 0.5 L 85.56656835038059 0.5 L 85.56656835038059 3.5 L 92.56656835038059 0 L 85.56656835038059 -3.5 L 85.56656835038059 -0.5 L 66.50789355019029 -0.5 Z"/><text text-anchor="middle" pointer-events="none" font-size="8px" fill="#000000" x="55.283284175190296" y="3" transform="rotate(180 55.283284175190296 0)" font-family="sans-serif">HAS</text></g><g class="relationship" transform="translate(-360.26735984816446 654.4058214638344) rotate(428.634845488228)"><path class="outline" fill="#A5ABB6" stroke="none" d="M 25 0.5 L 38.805850109903815 0.5 L 38.805850109903815 -0.5 L 25 -0.5 Z M 62.591006359903815 0.5 L 76.39685646980763 0.5 L 76.39685646980763 3.5 L 83.39685646980763 0 L 76.39685646980763 -3.5 L 76.39685646980763 -0.5 L 62.591006359903815 -0.5 Z"/><text text-anchor="middle" pointer-events="none" font-size="8px" fill="#000000" x="50.698428234903815" y="3" font-family="sans-serif">LINK</text></g><g class="relationship" transform="translate(217.07705133464057 97.87124815062629) rotate(273.126646260485)"><path class="outline" fill="#A5ABB6" stroke="none" d="M 25 0.5 L 47.970005864302244 0.5 L 47.970005864302244 -0.5 L 25 -0.5 Z M 70.41922461430224 0.5 L 93.38923047860449 0.5 L 93.38923047860449 3.5 L 100.38923047860449 0 L 93.38923047860449 -3.5 L 93.38923047860449 -0.5 L 70.41922461430224 -0.5 Z"/><text text-anchor="middle" pointer-events="none" font-size="8px" fill="#000000" x="59.194615239302244" y="3" font-family="sans-serif">HAS</text></g></g><g class="layer nodes"><g class="node" transform="translate(299.75699646789536,786.7137664790889)"><circle class="outline" cx="0" cy="0" r="25" fill="#FF756E" stroke="#E06760" stroke-width="2px"/><text text-anchor="middle" pointer-events="none" y="0" font-size="10px" fill="#FFFFFF" font-family="sans-serif"> Distance</text><text text-anchor="middle" pointer-events="none" y="10" font-size="10px" fill="#FFFFFF" font-family="sans-serif"> Educati…</text></g><g class="node" transform="translate(280.78690625669884,707.7261444164948)"><circle class="outline" cx="0" cy="0" r="25" fill="#6DCE9E" stroke="#60B58B" stroke-width="2px"/><text text-anchor="middle" pointer-events="none" y="5" font-size="10px" fill="#FFFFFF" font-family="sans-serif"> djones.f…</text></g><g class="node" transform="translate(391.44898570029414,763.7262828521366)"><circle class="outline" cx="0" cy="0" r="25" fill="#68BDF6" stroke="#5CA8DB" stroke-width="2px"/><text text-anchor="middle" pointer-events="none" y="5" font-size="10px" fill="#FFFFFF" font-family="sans-serif"> paper-id…</text></g><g class="node" transform="translate(367.7265053602091,676.3301069643969)"><circle class="outline" cx="0" cy="0" r="25" fill="#68BDF6" stroke="#5CA8DB" stroke-width="2px"/><text text-anchor="middle" pointer-events="none" y="5" font-size="10px" fill="#FFFFFF" font-family="sans-serif"> distance…</text></g><g class="node" transform="translate(368.010416572741,88.76162362496038)"><circle class="outline" cx="0" cy="0" r="25" fill="#6DCE9E" stroke="#60B58B" stroke-width="2px"/><text text-anchor="middle" pointer-events="none" y="5" font-size="10px" fill="#FFFFFF" font-family="sans-serif"> eloquen…</text></g><g class="node" transform="translate(318.71181946404204,-31.633975805118485)"><circle class="outline" cx="0" cy="0" r="25" fill="#68BDF6" stroke="#5CA8DB" stroke-width="2px"/><text text-anchor="middle" pointer-events="none" y="5" font-size="10px" fill="#FFFFFF" font-family="sans-serif"> teaching…</text></g><g class="node" transform="translate(261.5121836139491,-150.71536499444204)"><circle class="outline" cx="0" cy="0" r="25" fill="#FF756E" stroke="#E06760" stroke-width="2px"/><text text-anchor="middle" pointer-events="none" y="5" font-size="10px" fill="#FFFFFF" font-family="sans-serif"> Educatio…</text></g><g class="node" transform="translate(503.06556279697486,523.5243647969502)"><circle class="outline" cx="0" cy="0" r="25" fill="#68BDF6" stroke="#5CA8DB" stroke-width="2px"/><text text-anchor="middle" pointer-events="none" y="5" font-size="10px" fill="#FFFFFF" font-family="sans-serif"> manifest…</text></g><g class="node" transform="translate(609.5745297906459,551.3883570543661)"><circle class="outline" cx="0" cy="0" r="25" fill="#FF756E" stroke="#E06760" stroke-width="2px"/><text text-anchor="middle" pointer-events="none" y="5" font-size="10px" fill="#FFFFFF" font-family="sans-serif"> Education</text></g><g class="node" transform="translate(495.15822126463155,414.5059379870989)"><circle class="outline" cx="0" cy="0" r="25" fill="#6DCE9E" stroke="#60B58B" stroke-width="2px"/><text text-anchor="middle" pointer-events="none" y="5" font-size="10px" fill="#FFFFFF" font-family="sans-serif"> forage.w…</text></g><g class="node" transform="translate(601.8073702907934,442.016591441243)"><circle class="outline" cx="0" cy="0" r="25" fill="#68BDF6" stroke="#5CA8DB" stroke-width="2px"/><text text-anchor="middle" pointer-events="none" y="5" font-size="10px" fill="#FFFFFF" font-family="sans-serif"> educatio…</text></g><g class="node" transform="translate(682.0365866751548,249.41921190209666)"><circle class="outline" cx="0" cy="0" r="25" fill="#6DCE9E" stroke="#60B58B" stroke-width="2px"/><text text-anchor="middle" pointer-events="none" y="5" font-size="10px" fill="#FFFFFF" font-family="sans-serif"> future.fe…</text></g><g class="node" transform="translate(791.8619725918463,327.7563871534344)"><circle class="outline" cx="0" cy="0" r="25" fill="#FF756E" stroke="#E06760" stroke-width="2px"/><text text-anchor="middle" pointer-events="none" y="5" font-size="10px" fill="#FFFFFF" font-family="sans-serif"> Educatio…</text></g><g class="node" transform="translate(786.3588151548614,219.9094318814856)"><circle class="outline" cx="0" cy="0" r="25" fill="#68BDF6" stroke="#5CA8DB" stroke-width="2px"/><text text-anchor="middle" pointer-events="none" y="5" font-size="10px" fill="#FFFFFF" font-family="sans-serif"> mobile-fi…</text></g><g class="node" transform="translate(163.9530604794811,413.24544788369974)"><circle class="outline" cx="0" cy="0" r="25" fill="#6DCE9E" stroke="#60B58B" stroke-width="2px"/><text text-anchor="middle" pointer-events="none" y="5" font-size="10px" fill="#FFFFFF" font-family="sans-serif"> fwthoug…</text></g><g class="node" transform="translate(-83.96952544839401,457.70949086546403)"><circle class="outline" cx="0" cy="0" r="25" fill="#FF756E" stroke="#E06760" stroke-width="2px"/><text text-anchor="middle" pointer-events="none" y="-5" font-size="10px" fill="#FFFFFF" font-family="sans-serif"> Open</text><text text-anchor="middle" pointer-events="none" y="5" font-size="10px" fill="#FFFFFF" font-family="sans-serif"> Education</text><text text-anchor="middle" pointer-events="none" y="15" font-size="10px" fill="#FFFFFF" font-family="sans-serif"> As Op…</text></g><g class="node" transform="translate(38.232939887610065,395.0114775812384)"><circle class="outline" cx="0" cy="0" r="25" fill="#68BDF6" stroke="#5CA8DB" stroke-width="2px"/><text text-anchor="middle" pointer-events="none" y="5" font-size="10px" fill="#FFFFFF" font-family="sans-serif"> open-ed…</text></g><g class="node" transform="translate(-25.888801182179286,329.82441306725053)"><circle class="outline" cx="0" cy="0" r="25" fill="#FF756E" stroke="#E06760" stroke-width="2px"/><text text-anchor="middle" pointer-events="none" y="-5" font-size="10px" fill="#FFFFFF" font-family="sans-serif"> Open</text><text text-anchor="middle" pointer-events="none" y="5" font-size="10px" fill="#FFFFFF" font-family="sans-serif"> Education</text><text text-anchor="middle" pointer-events="none" y="15" font-size="10px" fill="#FFFFFF" font-family="sans-serif"> As Op…</text></g><g class="node" transform="translate(-68.12481844314009,287.26945238426174)"><circle class="outline" cx="0" cy="0" r="25" fill="#FF756E" stroke="#E06760" stroke-width="2px"/><text text-anchor="middle" pointer-events="none" y="-5" font-size="10px" fill="#FFFFFF" font-family="sans-serif"> Open</text><text text-anchor="middle" pointer-events="none" y="5" font-size="10px" fill="#FFFFFF" font-family="sans-serif"> Education</text><text text-anchor="middle" pointer-events="none" y="15" font-size="10px" fill="#FFFFFF" font-family="sans-serif"> As Ne…</text></g><g class="node" transform="translate(-28.999695553565452,494.3194897162399)"><circle class="outline" cx="0" cy="0" r="25" fill="#FF756E" stroke="#E06760" stroke-width="2px"/><text text-anchor="middle" pointer-events="none" y="0" font-size="10px" fill="#FFFFFF" font-family="sans-serif"> Open</text><text text-anchor="middle" pointer-events="none" y="10" font-size="10px" fill="#FFFFFF" font-family="sans-serif"> Educati…</text></g><g class="node" transform="translate(102.33016662090768,508.70586259010497)"><circle class="outline" cx="0" cy="0" r="25" fill="#68BDF6" stroke="#5CA8DB" stroke-width="2px"/><text text-anchor="middle" pointer-events="none" y="5" font-size="10px" fill="#FFFFFF" font-family="sans-serif"> federate…</text></g><g class="node" transform="translate(403.0366957575196,-137.18325050712795)"><circle class="outline" cx="0" cy="0" r="25" fill="#68BDF6" stroke="#5CA8DB" stroke-width="2px"/><text text-anchor="middle" pointer-events="none" y="5" font-size="10px" fill="#FFFFFF" font-family="sans-serif"> teaching…</text></g><g class="node" transform="translate(533.7956701370723,-179.7757527530872)"><circle class="outline" cx="0" cy="0" r="25" fill="#6DCE9E" stroke="#60B58B" stroke-width="2px"/><text text-anchor="middle" pointer-events="none" y="5" font-size="10px" fill="#FFFFFF" font-family="sans-serif"> h2.ward.…</text></g><g class="node" transform="translate(608.5538625111668,64.13508709589149)"><circle class="outline" cx="0" cy="0" r="25" fill="#FF756E" stroke="#E06760" stroke-width="2px"/><text text-anchor="middle" pointer-events="none" y="0" font-size="10px" fill="#FFFFFF" font-family="sans-serif"> Intelligent</text><text text-anchor="middle" pointer-events="none" y="10" font-size="10px" fill="#FFFFFF" font-family="sans-serif"> Machines</text></g><g class="node" transform="translate(562.9923981775472,-49.86136274572296)"><circle class="outline" cx="0" cy="0" r="25" fill="#68BDF6" stroke="#5CA8DB" stroke-width="2px"/><text text-anchor="middle" pointer-events="none" y="5" font-size="10px" fill="#FFFFFF" font-family="sans-serif"> teaching…</text></g><g class="node" transform="translate(647.5391563560372,-251.0481405938607)"><circle class="outline" cx="0" cy="0" r="25" fill="#68BDF6" stroke="#5CA8DB" stroke-width="2px"/><text text-anchor="middle" pointer-events="none" y="5" font-size="10px" fill="#FFFFFF" font-family="sans-serif"> sentenc…</text></g><g class="node" transform="translate(743.7739733864631,-171.09597833529497)"><circle class="outline" cx="0" cy="0" r="25" fill="#FF756E" stroke="#E06760" stroke-width="2px"/><text text-anchor="middle" pointer-events="none" y="-5" font-size="10px" fill="#FFFFFF" font-family="sans-serif"> National</text><text text-anchor="middle" pointer-events="none" y="5" font-size="10px" fill="#FFFFFF" font-family="sans-serif"> Defense</text><text text-anchor="middle" pointer-events="none" y="15" font-size="10px" fill="#FFFFFF" font-family="sans-serif"> Educa…</text></g><g class="node" transform="translate(592.6086887930155,-383.7299066771866)"><circle class="outline" cx="0" cy="0" r="25" fill="#FF756E" stroke="#E06760" stroke-width="2px"/><text text-anchor="middle" pointer-events="none" y="5" font-size="10px" fill="#FFFFFF" font-family="sans-serif"> Educatio…</text></g><g class="node" transform="translate(646.6550493568985,-357.67498654014304)"><circle class="outline" cx="0" cy="0" r="25" fill="#FF756E" stroke="#E06760" stroke-width="2px"/><text text-anchor="middle" pointer-events="none" y="5" font-size="10px" fill="#FFFFFF" font-family="sans-serif"> Educatio…</text></g><g class="node" transform="translate(646.0624386149836,-117.68839499168371)"><circle class="outline" cx="0" cy="0" r="25" fill="#68BDF6" stroke="#5CA8DB" stroke-width="2px"/><text text-anchor="middle" pointer-events="none" y="5" font-size="10px" fill="#FFFFFF" font-family="sans-serif"> national-…</text></g><g class="node" transform="translate(517.5734396272989,-315.40703043995234)"><circle class="outline" cx="0" cy="0" r="25" fill="#68BDF6" stroke="#5CA8DB" stroke-width="2px"/><text text-anchor="middle" pointer-events="none" y="5" font-size="10px" fill="#FFFFFF" font-family="sans-serif"> educatio…</text></g><g class="node" transform="translate(393.24204274312063,-201.06406535373287)"><circle class="outline" cx="0" cy="0" r="25" fill="#68BDF6" stroke="#5CA8DB" stroke-width="2px"/><text text-anchor="middle" pointer-events="none" y="5" font-size="10px" fill="#FFFFFF" font-family="sans-serif"> educatio…</text></g><g class="node" transform="translate(570.3674684708336,-280.0074589783685)"><circle class="outline" cx="0" cy="0" r="25" fill="#68BDF6" stroke="#5CA8DB" stroke-width="2px"/><text text-anchor="middle" pointer-events="none" y="5" font-size="10px" fill="#FFFFFF" font-family="sans-serif"> dr-dan-q…</text></g><g class="node" transform="translate(-160.86668490452595,-510.70629234390253)"><circle class="outline" cx="0" cy="0" r="25" fill="#6DCE9E" stroke="#60B58B" stroke-width="2px"/><text text-anchor="middle" pointer-events="none" y="5" font-size="10px" fill="#FFFFFF" font-family="sans-serif"> hhol.mik…</text></g><g class="node" transform="translate(-41.33130736059778,-516.6988734367616)"><circle class="outline" cx="0" cy="0" r="25" fill="#68BDF6" stroke="#5CA8DB" stroke-width="2px"/><text text-anchor="middle" pointer-events="none" y="5" font-size="10px" fill="#FFFFFF" font-family="sans-serif"> job-skills…</text></g><g class="node" transform="translate(-111.47038795485564,-422.9413508813623)"><circle class="outline" cx="0" cy="0" r="25" fill="#FF756E" stroke="#E06760" stroke-width="2px"/><text text-anchor="middle" pointer-events="none" y="-5" font-size="10px" fill="#FFFFFF" font-family="sans-serif"> Job</text><text text-anchor="middle" pointer-events="none" y="5" font-size="10px" fill="#FFFFFF" font-family="sans-serif"> Skills</text><text text-anchor="middle" pointer-events="none" y="15" font-size="10px" fill="#FFFFFF" font-family="sans-serif"> Educa…</text></g><g class="node" transform="translate(-132.26784372994115,-618.3541560823875)"><circle class="outline" cx="0" cy="0" r="25" fill="#68BDF6" stroke="#5CA8DB" stroke-width="2px"/><text text-anchor="middle" pointer-events="none" y="5" font-size="10px" fill="#FFFFFF" font-family="sans-serif"> educatio…</text></g><g class="node" transform="translate(-230.53577238878248,-550.6407364740511)"><circle class="outline" cx="0" cy="0" r="25" fill="#FF756E" stroke="#E06760" stroke-width="2px"/><text text-anchor="middle" pointer-events="none" y="5" font-size="10px" fill="#FFFFFF" font-family="sans-serif"> Education</text></g><g class="node" transform="translate(-292.88716574527257,-480.786080828146)"><circle class="outline" cx="0" cy="0" r="25" fill="#68BDF6" stroke="#5CA8DB" stroke-width="2px"/><text text-anchor="middle" pointer-events="none" y="5" font-size="10px" fill="#FFFFFF" font-family="sans-serif"> early-ed…</text></g><g class="node" transform="translate(-345.41893230669035,-381.2806647864459)"><circle class="outline" cx="0" cy="0" r="25" fill="#FF756E" stroke="#E06760" stroke-width="2px"/><text text-anchor="middle" pointer-events="none" y="0" font-size="10px" fill="#FFFFFF" font-family="sans-serif"> Early</text><text text-anchor="middle" pointer-events="none" y="10" font-size="10px" fill="#FFFFFF" font-family="sans-serif"> Educati…</text></g><g class="node" transform="translate(-230.8699226170925,-421.5904746684586)"><circle class="outline" cx="0" cy="0" r="25" fill="#68BDF6" stroke="#5CA8DB" stroke-width="2px"/><text text-anchor="middle" pointer-events="none" y="5" font-size="10px" fill="#FFFFFF" font-family="sans-serif"> compani…</text></g><g class="node" transform="translate(189.2520518282813,-265.52055708239465)"><circle class="outline" cx="0" cy="0" r="25" fill="#68BDF6" stroke="#5CA8DB" stroke-width="2px"/><text text-anchor="middle" pointer-events="none" y="5" font-size="10px" fill="#FFFFFF" font-family="sans-serif"> louisa-p…</text></g><g class="node" transform="translate(250.21998781146783,-374.09854609991424)"><circle class="outline" cx="0" cy="0" r="25" fill="#FF756E" stroke="#E06760" stroke-width="2px"/><text text-anchor="middle" pointer-events="none" y="0" font-size="10px" fill="#FFFFFF" font-family="sans-serif"> New</text><text text-anchor="middle" pointer-events="none" y="10" font-size="10px" fill="#FFFFFF" font-family="sans-serif"> Educati…</text></g><g class="node" transform="translate(46.87053147807953,-281.1703130474447)"><circle class="outline" cx="0" cy="0" r="25" fill="#6DCE9E" stroke="#60B58B" stroke-width="2px"/><text text-anchor="middle" pointer-events="none" y="5" font-size="10px" fill="#FFFFFF" font-family="sans-serif"> lph.mike…</text></g><g class="node" transform="translate(166.3230371377776,-387.7117384618309)"><circle class="outline" cx="0" cy="0" r="25" fill="#FF756E" stroke="#E06760" stroke-width="2px"/><text text-anchor="middle" pointer-events="none" y="0" font-size="10px" fill="#FFFFFF" font-family="sans-serif"> Froebel</text><text text-anchor="middle" pointer-events="none" y="10" font-size="10px" fill="#FFFFFF" font-family="sans-serif"> Educati…</text></g><g class="node" transform="translate(94.79217210209481,-216.66519299777647)"><circle class="outline" cx="0" cy="0" r="25" fill="#FF756E" stroke="#E06760" stroke-width="2px"/><text text-anchor="middle" pointer-events="none" y="5" font-size="10px" fill="#FFFFFF" font-family="sans-serif"> Differen…</text></g><g class="node" transform="translate(-206.63230101549888,-204.08339697691156)"><circle class="outline" cx="0" cy="0" r="25" fill="#FF756E" stroke="#E06760" stroke-width="2px"/><text text-anchor="middle" pointer-events="none" y="-5" font-size="10px" fill="#FFFFFF" font-family="sans-serif"> Works</text><text text-anchor="middle" pointer-events="none" y="5" font-size="10px" fill="#FFFFFF" font-family="sans-serif"> On</text><text text-anchor="middle" pointer-events="none" y="15" font-size="10px" fill="#FFFFFF" font-family="sans-serif"> Educa…</text></g><g class="node" transform="translate(-85.46435841416795,-237.18532395599786)"><circle class="outline" cx="0" cy="0" r="25" fill="#68BDF6" stroke="#5CA8DB" stroke-width="2px"/><text text-anchor="middle" pointer-events="none" y="5" font-size="10px" fill="#FFFFFF" font-family="sans-serif"> index</text></g><g class="node" transform="translate(-228.62397032389393,421.96532166291763)"><circle class="outline" cx="0" cy="0" r="25" fill="#68BDF6" stroke="#5CA8DB" stroke-width="2px"/><text text-anchor="middle" pointer-events="none" y="5" font-size="10px" fill="#FFFFFF" font-family="sans-serif"> open-ed…</text></g><g class="node" transform="translate(-225.84611790028987,308.1446378148354)"><circle class="outline" cx="0" cy="0" r="25" fill="#6DCE9E" stroke="#60B58B" stroke-width="2px"/><text text-anchor="middle" pointer-events="none" y="5" font-size="10px" fill="#FFFFFF" font-family="sans-serif"> mike.fed…</text></g><g class="node" transform="translate(-167.40578280563645,208.30884220283127)"><circle class="outline" cx="0" cy="0" r="25" fill="#68BDF6" stroke="#5CA8DB" stroke-width="2px"/><text text-anchor="middle" pointer-events="none" y="5" font-size="10px" fill="#FFFFFF" font-family="sans-serif"> open-ed…</text></g><g class="node" transform="translate(-147.91278426580996,398.19766625785456)"><circle class="outline" cx="0" cy="0" r="25" fill="#68BDF6" stroke="#5CA8DB" stroke-width="2px"/><text text-anchor="middle" pointer-events="none" y="5" font-size="10px" fill="#FFFFFF" font-family="sans-serif"> open-ed…</text></g><g class="node" transform="translate(-96.24977728194555,367.96258784656635)"><circle class="outline" cx="0" cy="0" r="25" fill="#68BDF6" stroke="#5CA8DB" stroke-width="2px"/><text text-anchor="middle" pointer-events="none" y="5" font-size="10px" fill="#FFFFFF" font-family="sans-serif"> mike-ca…</text></g><g class="node" transform="translate(-504.48375819638403,-49.891910007629484)"><circle class="outline" cx="0" cy="0" r="25" fill="#6DCE9E" stroke="#60B58B" stroke-width="2px"/><text text-anchor="middle" pointer-events="none" y="5" font-size="10px" fill="#FFFFFF" font-family="sans-serif"> selenam…</text></g><g class="node" transform="translate(-585.3941445944006,-58.043185944288965)"><circle class="outline" cx="0" cy="0" r="25" fill="#FF756E" stroke="#E06760" stroke-width="2px"/><text text-anchor="middle" pointer-events="none" y="5" font-size="10px" fill="#FFFFFF" font-family="sans-serif"> Education</text></g><g class="node" transform="translate(-597.8820422663409,35.61448550066342)"><circle class="outline" cx="0" cy="0" r="25" fill="#68BDF6" stroke="#5CA8DB" stroke-width="2px"/><text text-anchor="middle" pointer-events="none" y="5" font-size="10px" fill="#FFFFFF" font-family="sans-serif"> welcom…</text></g><g class="node" transform="translate(-510.98745555798445,44.032829512731695)"><circle class="outline" cx="0" cy="0" r="25" fill="#68BDF6" stroke="#5CA8DB" stroke-width="2px"/><text text-anchor="middle" pointer-events="none" y="5" font-size="10px" fill="#FFFFFF" font-family="sans-serif"> educatio…</text></g><g class="node" transform="translate(-6.161521531889722,-33.82376851476857)"><circle class="outline" cx="0" cy="0" r="25" fill="#6DCE9E" stroke="#60B58B" stroke-width="2px"/><text text-anchor="middle" pointer-events="none" y="5" font-size="10px" fill="#FFFFFF" font-family="sans-serif"> sfw.mc…</text></g><g class="node" transform="translate(-252.25248946766249,-14.121535092710204)"><circle class="outline" cx="0" cy="0" r="25" fill="#FF756E" stroke="#E06760" stroke-width="2px"/><text text-anchor="middle" pointer-events="none" y="-10" font-size="10px" fill="#FFFFFF" font-family="sans-serif"> The</text><text text-anchor="middle" pointer-events="none" y="0" font-size="10px" fill="#FFFFFF" font-family="sans-serif"> Shame</text><text text-anchor="middle" pointer-events="none" y="10" font-size="10px" fill="#FFFFFF" font-family="sans-serif"> Of</text><text text-anchor="middle" pointer-events="none" y="20" font-size="10px" fill="#FFFFFF" font-family="sans-serif"> Edu…</text></g><g class="node" transform="translate(-133.44136341356244,-15.939418863995547)"><circle class="outline" cx="0" cy="0" r="25" fill="#68BDF6" stroke="#5CA8DB" stroke-width="2px"/><text text-anchor="middle" pointer-events="none" y="5" font-size="10px" fill="#FFFFFF" font-family="sans-serif"> teaching…</text></g><g class="node" transform="translate(128.74131651252458,-88.07635170414947)"><circle class="outline" cx="0" cy="0" r="25" fill="#68BDF6" stroke="#5CA8DB" stroke-width="2px"/><text text-anchor="middle" pointer-events="none" y="5" font-size="10px" fill="#FFFFFF" font-family="sans-serif"> sentenc…</text></g><g class="node" transform="translate(-566.9363369038889,257.39067691575315)"><circle class="outline" cx="0" cy="0" r="25" fill="#6DCE9E" stroke="#60B58B" stroke-width="2px"/><text text-anchor="middle" pointer-events="none" y="5" font-size="10px" fill="#FFFFFF" font-family="sans-serif"> tim.sand…</text></g><g class="node" transform="translate(-519.3487983013689,349.19163569048936)"><circle class="outline" cx="0" cy="0" r="25" fill="#68BDF6" stroke="#5CA8DB" stroke-width="2px"/><text text-anchor="middle" pointer-events="none" y="5" font-size="10px" fill="#FFFFFF" font-family="sans-serif"> the-hidd…</text></g><g class="node" transform="translate(-532.3215567937483,453.9051120705996)"><circle class="outline" cx="0" cy="0" r="25" fill="#FF756E" stroke="#E06760" stroke-width="2px"/><text text-anchor="middle" pointer-events="none" y="-10" font-size="10px" fill="#FFFFFF" font-family="sans-serif"> The</text><text text-anchor="middle" pointer-events="none" y="0" font-size="10px" fill="#FFFFFF" font-family="sans-serif"> Hidden</text><text text-anchor="middle" pointer-events="none" y="10" font-size="10px" fill="#FFFFFF" font-family="sans-serif"> History</text><text text-anchor="middle" pointer-events="none" y="20" font-size="10px" fill="#FFFFFF" font-family="sans-serif"> Of</text></g><g class="node" transform="translate(35.709269806354044,737.1725424322232)"><circle class="outline" cx="0" cy="0" r="25" fill="#6DCE9E" stroke="#60B58B" stroke-width="2px"/><text text-anchor="middle" pointer-events="none" y="5" font-size="10px" fill="#FFFFFF" font-family="sans-serif"> ward.fed…</text></g><g class="node" transform="translate(18.1124241539085,617.3437616693499)"><circle class="outline" cx="0" cy="0" r="25" fill="#68BDF6" stroke="#5CA8DB" stroke-width="2px"/><text text-anchor="middle" pointer-events="none" y="5" font-size="10px" fill="#FFFFFF" font-family="sans-serif"> friends-f…</text></g><g class="node" transform="translate(-243.18780985028107,643.7157809598029)"><circle class="outline" cx="0" cy="0" r="25" fill="#6DCE9E" stroke="#60B58B" stroke-width="2px"/><text text-anchor="middle" pointer-events="none" y="5" font-size="10px" fill="#FFFFFF" font-family="sans-serif"> wiki.parli…</text></g><g class="node" transform="translate(-121.49130136668491,597.6912053793338)"><circle class="outline" cx="0" cy="0" r="25" fill="#68BDF6" stroke="#5CA8DB" stroke-width="2px"/><text text-anchor="middle" pointer-events="none" y="5" font-size="10px" fill="#FFFFFF" font-family="sans-serif"> wanderb…</text></g><g class="node" transform="translate(-360.26735984816446,654.4058214638344)"><circle class="outline" cx="0" cy="0" r="25" fill="#68BDF6" stroke="#5CA8DB" stroke-width="2px"/><text text-anchor="middle" pointer-events="none" y="5" font-size="10px" fill="#FFFFFF" font-family="sans-serif"> graduall…</text></g><g class="node" transform="translate(-320.7772492456941,755.3533804097581)"><circle class="outline" cx="0" cy="0" r="25" fill="#FF756E" stroke="#E06760" stroke-width="2px"/><text text-anchor="middle" pointer-events="none" y="5" font-size="10px" fill="#FFFFFF" font-family="sans-serif"> Disrupting</text></g><g class="node" transform="translate(217.07705133464057,97.87124815062629)"><circle class="outline" cx="0" cy="0" r="25" fill="#6DCE9E" stroke="#60B58B" stroke-width="2px"/><text text-anchor="middle" pointer-events="none" y="5" font-size="10px" fill="#FFFFFF" font-family="sans-serif"> write.asi…</text></g><g class="node" transform="translate(223.9161801515979,-27.33132944680843)"><circle class="outline" cx="0" cy="0" r="25" fill="#68BDF6" stroke="#5CA8DB" stroke-width="2px"/><text text-anchor="middle" pointer-events="none" y="5" font-size="10px" fill="#FFFFFF" font-family="sans-serif"> teaching…</text></g></g></svg>