<svg xmlns="http://www.w3.org/2000/svg" width="458.2086486816406" height="450.0675048828125" viewBox="-136.05206298828125 -119.64207458496094 458.2086486816406 450.0675048828125"><title>Neo4j Graph Visualization</title><desc>Created using Neo4j (http://www.neo4j.com/)</desc><g class="layer relationships"><g class="relationship" transform="translate(-107.0520528778286 134.2849709287466) rotate(277.5076003773396)"><path class="outline" fill="#A5ABB6" stroke="none" d="M 25 0.5 L 42.39735327122654 0.5 L 42.39735327122654 -0.5 L 25 -0.5 Z M 64.84657202122654 0.5 L 82.24392529245308 0.5 L 82.24392529245308 3.5 L 89.24392529245308 0 L 82.24392529245308 -3.5 L 82.24392529245308 -0.5 L 64.84657202122654 -0.5 Z"/><text text-anchor="middle" pointer-events="none" font-size="8px" fill="#000000" x="53.62196264622654" y="3" font-family="sans-serif">HAS</text></g><g class="relationship" transform="translate(157.67618731228342 7.722278903053483) rotate(238.3264916393033)"><path class="outline" fill="#A5ABB6" stroke="none" d="M 25 0.5 L 47.51042935168401 0.5 L 47.51042935168401 -0.5 L 25 -0.5 Z M 61.06902310168401 0.5 L 83.57945245336802 0.5 L 83.57945245336802 3.5 L 90.57945245336802 0 L 83.57945245336802 -3.5 L 83.57945245336802 -0.5 L 61.06902310168401 -0.5 Z"/><text text-anchor="middle" pointer-events="none" font-size="8px" fill="#000000" x="54.28972622668401" y="3" transform="rotate(180 54.28972622668401 0)" font-family="sans-serif">IS</text></g><g class="relationship" transform="translate(157.67618731228342 7.722278903053483) rotate(371.00366363732263)"><path class="outline" fill="#A5ABB6" stroke="none" d="M 24.018736134675446,6.953439040707552 L 24.277555179777966,5.987513214418485 A 115.30013300619733 115.30013300619733 0 0 0 34.42174560930236,8.221251633903705 L 34.25090729904409,9.20655071121378 A 116.30013300619733 116.30013300619733 0 0 1 24.018736134675446,6.953439040707552 Z M 70.4776034525391,9.760094480988315 L 70.33694860094893,8.770035789433024 A 115.30013300619733 115.30013300619733 0 0 0 80.54465033370164,6.847274199350565 L 79.85709107058321,3.9271265558742905 L 87.47292137899936,5.729660525986937 L 81.46139601785956,10.740804390652265 L 80.77383675474113,7.82065674717599 A 116.30013300619733 116.30013300619733 0 0 1 70.4776034525391,9.760094480988315"/><text text-anchor="middle" pointer-events="none" font-size="8px" fill="#000000" x="52.35020646868452" y="13.402753934410526" font-family="sans-serif">KNOWS</text></g><g class="relationship" transform="translate(-92.12520346591957 21.020397328428864) rotate(317.00095596808353)"><path class="outline" fill="#A5ABB6" stroke="none" d="M 25 0.5 L 51.267165977477205 0.5 L 51.267165977477205 -0.5 L 25 -0.5 Z M 64.8257597274772 0.5 L 91.09292570495441 0.5 L 91.09292570495441 3.5 L 98.09292570495441 0 L 91.09292570495441 -3.5 L 91.09292570495441 -0.5 L 64.8257597274772 -0.5 Z"/><text text-anchor="middle" pointer-events="none" font-size="8px" fill="#000000" x="58.046462852477205" y="3" font-family="sans-serif">IS</text></g><g class="relationship" transform="translate(250.27058044487498 247.9095613219793) rotate(511.917709803801)"><path class="outline" fill="#A5ABB6" stroke="none" d="M 25 0.5 L 42.11774595551098 0.5 L 42.11774595551098 -0.5 L 25 -0.5 Z M 64.56696470551098 0.5 L 81.68471066102197 0.5 L 81.68471066102197 3.5 L 88.68471066102197 0 L 81.68471066102197 -3.5 L 81.68471066102197 -0.5 L 64.56696470551098 -0.5 Z"/><text text-anchor="middle" pointer-events="none" font-size="8px" fill="#000000" x="53.34235533051098" y="3" transform="rotate(180 53.34235533051098 0)" font-family="sans-serif">HAS</text></g><g class="relationship" transform="translate(149.96969667559614 301.4254108731347) rotate(182.53669621437462)"><path class="outline" fill="#A5ABB6" stroke="none" d="M 25 0.5 L 35.08300935215574 0.5 L 35.08300935215574 -0.5 L 25 -0.5 Z M 71.30566560215574 0.5 L 81.38867495431148 0.5 L 81.38867495431148 3.5 L 88.38867495431148 0 L 81.38867495431148 -3.5 L 81.38867495431148 -0.5 L 71.30566560215574 -0.5 Z"/><text text-anchor="middle" pointer-events="none" font-size="8px" fill="#000000" x="53.19433747715574" y="3" transform="rotate(180 53.19433747715574 0)" font-family="sans-serif">KNOWS</text></g><g class="relationship" transform="translate(-60.39084241801316 238.21138813836575) rotate(245.82072305317195)"><path class="outline" fill="#A5ABB6" stroke="none" d="M 25 0.5 L 35.349115947187094 0.5 L 35.349115947187094 -0.5 L 25 -0.5 Z M 71.5717721971871 0.5 L 81.92088814437419 0.5 L 81.92088814437419 3.5 L 88.92088814437419 0 L 81.92088814437419 -3.5 L 81.92088814437419 -0.5 L 71.5717721971871 -0.5 Z"/><text text-anchor="middle" pointer-events="none" font-size="8px" fill="#000000" x="53.460444072187094" y="3" transform="rotate(180 53.460444072187094 0)" font-family="sans-serif">KNOWS</text></g><g class="relationship" transform="translate(36.69213357664801 296.406914459035) rotate(210.94020486181313)"><path class="outline" fill="#A5ABB6" stroke="none" d="M 25 0.5 L 41.87005360597301 0.5 L 41.87005360597301 -0.5 L 25 -0.5 Z M 64.31927235597301 0.5 L 81.18932596194603 0.5 L 81.18932596194603 3.5 L 88.18932596194603 0 L 81.18932596194603 -3.5 L 81.18932596194603 -0.5 L 64.31927235597301 -0.5 Z"/><text text-anchor="middle" pointer-events="none" font-size="8px" fill="#000000" x="53.09466298097301" y="3" transform="rotate(180 53.09466298097301 0)" font-family="sans-serif">HAS</text></g><g class="relationship" transform="translate(293.1565966558875 141.2193355822153) rotate(471.89853002529037)"><path class="outline" fill="#A5ABB6" stroke="none" d="M 25 0.5 L 35.88218162795609 0.5 L 35.88218162795609 -0.5 L 25 -0.5 Z M 72.1048378779561 0.5 L 82.98701950591219 0.5 L 82.98701950591219 3.5 L 89.98701950591219 0 L 82.98701950591219 -3.5 L 82.98701950591219 -0.5 L 72.1048378779561 -0.5 Z"/><text text-anchor="middle" pointer-events="none" font-size="8px" fill="#000000" x="53.99350975295609" y="3" transform="rotate(180 53.99350975295609 0)" font-family="sans-serif">KNOWS</text></g><g class="relationship" transform="translate(267.42808960813903 29.06317066407637) rotate(437.07994690321595)"><path class="outline" fill="#A5ABB6" stroke="none" d="M 24.018736134675446,-6.953439040707552 L 24.277555179777966,-5.987513214418485 A 121.79705074677797 121.79705074677797 0 0 1 42.83574729809664,-9.445612947227474 L 42.72929805180725,-10.439931084427243 A 122.79705074677797 122.79705074677797 0 0 0 24.018736134675446,-6.953439040707552 Z M 65.23617617192143,-10.774628400344767 L 65.1593402498518,-9.777584649509478 A 121.79705074677797 121.79705074677797 0 0 1 83.81215344439391,-6.87284569531852 L 83.12220565693225,-3.9532614696835133 L 90.73950793545254,-5.749564895513818 L 84.73208382767614,-10.765624662831863 L 84.04213604021447,-7.846040437196856 A 122.79705074677797 122.79705074677797 0 0 0 65.23617617192143,-10.774628400344767"/><text text-anchor="middle" pointer-events="none" font-size="8px" fill="#000000" x="53.98248658216021" y="-7.624126729941636" font-family="sans-serif">HAS</text></g><g class="relationship" transform="translate(218.7227379541843 -77.93849956984558) rotate(425.52577412647486)"><path class="outline" fill="#A5ABB6" stroke="none" d="M 25 0.5 L 37.17125584462566 0.5 L 37.17125584462566 -0.5 L 25 -0.5 Z M 73.39391209462566 0.5 L 85.56516793925132 0.5 L 85.56516793925132 3.5 L 92.56516793925132 0 L 85.56516793925132 -3.5 L 85.56516793925132 -0.5 L 73.39391209462566 -0.5 Z"/><text text-anchor="middle" pointer-events="none" font-size="8px" fill="#000000" x="55.28258396962566" y="3" font-family="sans-serif">KNOWS</text></g><g class="relationship" transform="translate(218.7227379541843 -77.93849956984558) rotate(185.9575093678951)"><path class="outline" fill="#A5ABB6" stroke="none" d="M 25 0.5 L 50.91862575486041 0.5 L 50.91862575486041 -0.5 L 25 -0.5 Z M 64.47721950486041 0.5 L 90.39584525972082 0.5 L 90.39584525972082 3.5 L 97.39584525972082 0 L 90.39584525972082 -3.5 L 90.39584525972082 -0.5 L 64.47721950486041 -0.5 Z"/><text text-anchor="middle" pointer-events="none" font-size="8px" fill="#000000" x="57.69792262986041" y="3" transform="rotate(180 57.69792262986041 0)" font-family="sans-serif">IS</text></g><g class="relationship" transform="translate(293.1565966558875 141.2193355822153) rotate(257.07994690321595)"><path class="outline" fill="#A5ABB6" stroke="none" d="M 24.018736134675446,-6.953439040707552 L 24.277555179777966,-5.987513214418485 A 121.79705074677797 121.79705074677797 0 0 1 36.04030795306566,-8.52395015147708 L 35.87806557136481,-9.510701087417885 A 122.79705074677797 122.79705074677797 0 0 0 24.018736134675446,-6.953439040707552 Z M 72.11200995727911,-10.049532100157606 L 71.97918055862726,-9.05839318413534 A 121.79705074677797 121.79705074677797 0 0 1 83.81215344439391,-6.87284569531852 L 83.12220565693225,-3.9532614696835133 L 90.73950793545254,-5.749564895513818 L 84.73208382767614,-10.765624662831863 L 84.04213604021447,-7.846040437196856 A 122.79705074677797 122.79705074677797 0 0 0 72.11200995727911,-10.049532100157606"/><text text-anchor="middle" pointer-events="none" font-size="8px" fill="#000000" x="53.98248658216021" y="-7.624126729941636" transform="rotate(180 53.98248658216021 -10.624126729941636)" font-family="sans-serif">KNOWS</text></g><g class="relationship" transform="translate(267.42808960813903 29.06317066407637) rotate(191.00366363732263)"><path class="outline" fill="#A5ABB6" stroke="none" d="M 24.018736134675446,6.953439040707552 L 24.277555179777966,5.987513214418485 A 115.30013300619733 115.30013300619733 0 0 0 41.208766005214905,9.19115842906902 L 41.09679163742535,10.18486952438704 A 116.30013300619733 116.30013300619733 0 0 1 24.018736134675446,6.953439040707552 Z M 63.60502466230657,10.528795233393595 L 63.523463283892966,9.532126912661326 A 115.30013300619733 115.30013300619733 0 0 0 80.54465033370164,6.847274199350565 L 79.85709107058321,3.9271265558742905 L 87.47292137899936,5.729660525986937 L 81.46139601785956,10.740804390652265 L 80.77383675474113,7.82065674717599 A 116.30013300619733 116.30013300619733 0 0 1 63.60502466230657,10.528795233393595"/><text text-anchor="middle" pointer-events="none" font-size="8px" fill="#000000" x="52.35020646868452" y="13.402753934410526" transform="rotate(180 52.35020646868452 10.402753934410526)" font-family="sans-serif">HAS</text></g></g><g class="layer nodes"><g class="node" transform="translate(267.42808960813903,29.06317066407637)"><circle class="outline" cx="0" cy="0" r="25" fill="#6DCE9E" stroke="#60B58B" stroke-width="2px"/><text text-anchor="middle" pointer-events="none" y="5" font-size="10px" fill="#FFFFFF" font-family="sans-serif"> david.bo…</text></g><g class="node" transform="translate(-92.12520346591957,21.020397328428864)"><circle class="outline" cx="0" cy="0" r="25" fill="#68BDF6" stroke="#5CA8DB" stroke-width="2px"/><text text-anchor="middle" pointer-events="none" y="5" font-size="10px" fill="#FFFFFF" font-family="sans-serif"> naval-un…</text></g><g class="node" transform="translate(-60.39084241801316,238.21138813836575)"><circle class="outline" cx="0" cy="0" r="25" fill="#68BDF6" stroke="#5CA8DB" stroke-width="2px"/><text text-anchor="middle" pointer-events="none" y="5" font-size="10px" fill="#FFFFFF" font-family="sans-serif"> virtual-c…</text></g><g class="node" transform="translate(157.67618731228342,7.722278903053483)"><circle class="outline" cx="0" cy="0" r="25" fill="#68BDF6" stroke="#5CA8DB" stroke-width="2px"/><text text-anchor="middle" pointer-events="none" y="5" font-size="10px" fill="#FFFFFF" font-family="sans-serif"> hacker-b…</text></g><g class="node" transform="translate(96.98793547777223,-90.64207398299618)"><circle class="outline" cx="0" cy="0" r="25" fill="#FF756E" stroke="#E06760" stroke-width="2px"/><text text-anchor="middle" pointer-events="none" y="0" font-size="10px" fill="#FFFFFF" font-family="sans-serif"> Hacker</text><text text-anchor="middle" pointer-events="none" y="10" font-size="10px" fill="#FFFFFF" font-family="sans-serif"> Beach</text></g><g class="node" transform="translate(-107.0520528778286,134.2849709287466)"><circle class="outline" cx="0" cy="0" r="25" fill="#6DCE9E" stroke="#60B58B" stroke-width="2px"/><text text-anchor="middle" pointer-events="none" y="5" font-size="10px" fill="#FFFFFF" font-family="sans-serif"> panels.f…</text></g><g class="node" transform="translate(293.1565966558875,141.2193355822153)"><circle class="outline" cx="0" cy="0" r="25" fill="#68BDF6" stroke="#5CA8DB" stroke-width="2px"/><text text-anchor="middle" pointer-events="none" y="5" font-size="10px" fill="#FFFFFF" font-family="sans-serif"> welcom…</text></g><g class="node" transform="translate(-2.0993359466178845,-62.92727408658163)"><circle class="outline" cx="0" cy="0" r="25" fill="#FF756E" stroke="#E06760" stroke-width="2px"/><text text-anchor="middle" pointer-events="none" y="-5" font-size="10px" fill="#FFFFFF" font-family="sans-serif"> Naval</text><text text-anchor="middle" pointer-events="none" y="5" font-size="10px" fill="#FFFFFF" font-family="sans-serif"> Undersea</text><text text-anchor="middle" pointer-events="none" y="15" font-size="10px" fill="#FFFFFF" font-family="sans-serif"> Muse…</text></g><g class="node" transform="translate(149.96969667559614,301.4254108731347)"><circle class="outline" cx="0" cy="0" r="25" fill="#68BDF6" stroke="#5CA8DB" stroke-width="2px"/><text text-anchor="middle" pointer-events="none" y="5" font-size="10px" fill="#FFFFFF" font-family="sans-serif"> ward-cu…</text></g><g class="node" transform="translate(36.69213357664801,296.406914459035)"><circle class="outline" cx="0" cy="0" r="25" fill="#6DCE9E" stroke="#60B58B" stroke-width="2px"/><text text-anchor="middle" pointer-events="none" y="5" font-size="10px" fill="#FFFFFF" font-family="sans-serif"> ward.fed…</text></g><g class="node" transform="translate(250.27058044487498,247.9095613219793)"><circle class="outline" cx="0" cy="0" r="25" fill="#6DCE9E" stroke="#60B58B" stroke-width="2px"/><text text-anchor="middle" pointer-events="none" y="5" font-size="10px" fill="#FFFFFF" font-family="sans-serif"> wiki.parli…</text></g><g class="node" transform="translate(218.7227379541843,-77.93849956984558)"><circle class="outline" cx="0" cy="0" r="25" fill="#68BDF6" stroke="#5CA8DB" stroke-width="2px"/><text text-anchor="middle" pointer-events="none" y="5" font-size="10px" fill="#FFFFFF" font-family="sans-serif"> hacker-b…</text></g></g></svg>