<svg xmlns="http://www.w3.org/2000/svg" width="409.0314636230469" height="518.740966796875" viewBox="-112.28783416748047 -168.72134399414062 409.0314636230469 518.740966796875"><title>Neo4j Graph Visualization</title><desc>Created using Neo4j (http://www.neo4j.com/)</desc><g class="layer relationships"><g class="relationship" transform="translate(221.51276268336085 248.79170270208073) rotate(503.8052071562745)"><path class="outline" fill="#A5ABB6" stroke="none" d="M 25 0.5 L 46.43030051087482 0.5 L 46.43030051087482 -0.5 L 25 -0.5 Z M 68.87951926087482 0.5 L 90.30981977174964 0.5 L 90.30981977174964 3.5 L 97.30981977174964 0 L 90.30981977174964 -3.5 L 90.30981977174964 -0.5 L 68.87951926087482 -0.5 Z"/><text text-anchor="middle" pointer-events="none" font-size="8px" fill="#000000" x="57.65490988587482" y="3" transform="rotate(180 57.65490988587482 0)" font-family="sans-serif">HAS</text></g><g class="relationship" transform="translate(122.80702771667683 321.0196051864019) rotate(199.08283379028103)"><path class="outline" fill="#A5ABB6" stroke="none" d="M 25 0.5 L 46.122387153418806 0.5 L 46.122387153418806 -0.5 L 25 -0.5 Z M 69.9075434034188 0.5 L 91.02993055683761 0.5 L 91.02993055683761 3.5 L 98.02993055683761 0 L 91.02993055683761 -3.5 L 91.02993055683761 -0.5 L 69.9075434034188 -0.5 Z"/><text text-anchor="middle" pointer-events="none" font-size="8px" fill="#000000" x="58.014965278418806" y="3" transform="rotate(180 58.014965278418806 0)" font-family="sans-serif">LINK</text></g><g class="relationship" transform="translate(221.51276268336085 248.79170270208073) rotate(275.8804576880576)"><path class="outline" fill="#A5ABB6" stroke="none" d="M 25 0.5 L 45.566450616912384 0.5 L 45.566450616912384 -0.5 L 25 -0.5 Z M 68.01566936691239 0.5 L 88.58211998382477 0.5 L 88.58211998382477 3.5 L 95.58211998382477 0 L 88.58211998382477 -3.5 L 88.58211998382477 -0.5 L 68.01566936691239 -0.5 Z"/><text text-anchor="middle" pointer-events="none" font-size="8px" fill="#000000" x="56.791059991912384" y="3" font-family="sans-serif">HAS</text></g><g class="relationship" transform="translate(221.51276268336085 248.79170270208073) rotate(186.96452516419112)"><path class="outline" fill="#A5ABB6" stroke="none" d="M 25 0.5 L 41.3939877389334 0.5 L 41.3939877389334 -0.5 L 25 -0.5 Z M 63.8432064889334 0.5 L 80.2371942278668 0.5 L 80.2371942278668 3.5 L 87.2371942278668 0 L 80.2371942278668 -3.5 L 80.2371942278668 -0.5 L 63.8432064889334 -0.5 Z"/><text text-anchor="middle" pointer-events="none" font-size="8px" fill="#000000" x="52.6185971139334" y="3" transform="rotate(180 52.6185971139334 0)" font-family="sans-serif">HAS</text></g><g class="relationship" transform="translate(162.26337843805916 -72.44604194582001) rotate(348.0576707638752)"><path class="outline" fill="#A5ABB6" stroke="none" d="M 25 0.5 L 38.51428899751926 0.5 L 38.51428899751926 -0.5 L 25 -0.5 Z M 62.29944524751926 0.5 L 75.81373424503852 0.5 L 75.81373424503852 3.5 L 82.81373424503852 0 L 75.81373424503852 -3.5 L 75.81373424503852 -0.5 L 62.29944524751926 -0.5 Z"/><text text-anchor="middle" pointer-events="none" font-size="8px" fill="#000000" x="50.40686712251926" y="3" font-family="sans-serif">LINK</text></g><g class="relationship" transform="translate(233.86679395879185 128.84410759888917) rotate(227.26694495484526)"><path class="outline" fill="#A5ABB6" stroke="none" d="M 25 0.5 L 51.45685983915673 0.5 L 51.45685983915673 -0.5 L 25 -0.5 Z M 65.01545358915672 0.5 L 91.47231342831346 0.5 L 91.47231342831346 3.5 L 98.47231342831346 0 L 91.47231342831346 -3.5 L 91.47231342831346 -0.5 L 65.01545358915672 -0.5 Z"/><text text-anchor="middle" pointer-events="none" font-size="8px" fill="#000000" x="58.23615671415673" y="3" transform="rotate(180 58.23615671415673 0)" font-family="sans-serif">IS</text></g><g class="relationship" transform="translate(27.591040469417468 35.97709621380315) rotate(361.01667858482983)"><path class="outline" fill="#A5ABB6" stroke="none" d="M 25 0.5 L 50.97508301343259 0.5 L 50.97508301343259 -0.5 L 25 -0.5 Z M 64.5336767634326 0.5 L 90.50875977686518 0.5 L 90.50875977686518 3.5 L 97.50875977686518 0 L 90.50875977686518 -3.5 L 90.50875977686518 -0.5 L 64.5336767634326 -0.5 Z"/><text text-anchor="middle" pointer-events="none" font-size="8px" fill="#000000" x="57.75437988843259" y="3" font-family="sans-serif">IS</text></g><g class="relationship" transform="translate(162.26337843805916 -72.44604194582001) rotate(456.28610707440225)"><path class="outline" fill="#A5ABB6" stroke="none" d="M 25 0.5 L 45.353627746156526 0.5 L 45.353627746156526 -0.5 L 25 -0.5 Z M 58.912221496156526 0.5 L 79.26584924231305 0.5 L 79.26584924231305 3.5 L 86.26584924231305 0 L 79.26584924231305 -3.5 L 79.26584924231305 -0.5 L 58.912221496156526 -0.5 Z"/><text text-anchor="middle" pointer-events="none" font-size="8px" fill="#000000" x="52.132924621156526" y="3" transform="rotate(180 52.132924621156526 0)" font-family="sans-serif">IS</text></g><g class="relationship" transform="translate(110.1037198951472 235.1824061310645) rotate(516.2294160710467)"><path class="outline" fill="#A5ABB6" stroke="none" d="M 25 0.5 L 46.303697250840344 0.5 L 46.303697250840344 -0.5 L 25 -0.5 Z M 59.862291000840344 0.5 L 81.16598825168069 0.5 L 81.16598825168069 3.5 L 88.16598825168069 0 L 81.16598825168069 -3.5 L 81.16598825168069 -0.5 L 59.862291000840344 -0.5 Z"/><text text-anchor="middle" pointer-events="none" font-size="8px" fill="#000000" x="53.082994125840344" y="3" transform="rotate(180 53.082994125840344 0)" font-family="sans-serif">IS</text></g><g class="relationship" transform="translate(-83.28783460221769 199.18453015404134) rotate(402.25709199653613)"><path class="outline" fill="#A5ABB6" stroke="none" d="M 25 0.5 L 45.28947280230186 0.5 L 45.28947280230186 -0.5 L 25 -0.5 Z M 69.07462905230186 0.5 L 89.36410185460372 0.5 L 89.36410185460372 3.5 L 96.36410185460372 0 L 89.36410185460372 -3.5 L 89.36410185460372 -0.5 L 69.07462905230186 -0.5 Z"/><text text-anchor="middle" pointer-events="none" font-size="8px" fill="#000000" x="57.18205092730186" y="3" font-family="sans-serif">LINK</text></g><g class="relationship" transform="translate(75.32020425352381 -139.72133764348723) rotate(397.7321550387998)"><path class="outline" fill="#A5ABB6" stroke="none" d="M 25 0.5 L 40.2414732316653 0.5 L 40.2414732316653 -0.5 L 25 -0.5 Z M 62.6906919816653 0.5 L 77.9321652133306 0.5 L 77.9321652133306 3.5 L 84.9321652133306 0 L 77.9321652133306 -3.5 L 77.9321652133306 -0.5 L 62.6906919816653 -0.5 Z"/><text text-anchor="middle" pointer-events="none" font-size="8px" fill="#000000" x="51.4660826066653" y="3" font-family="sans-serif">HAS</text></g><g class="relationship" transform="translate(-80.41718003522587 82.22581768666167) rotate(451.4059950886874)"><path class="outline" fill="#A5ABB6" stroke="none" d="M 25 0.5 L 43.772358665382626 0.5 L 43.772358665382626 -0.5 L 25 -0.5 Z M 66.22157741538263 0.5 L 84.99393608076525 0.5 L 84.99393608076525 3.5 L 91.99393608076525 0 L 84.99393608076525 -3.5 L 84.99393608076525 -0.5 L 66.22157741538263 -0.5 Z"/><text text-anchor="middle" pointer-events="none" font-size="8px" fill="#000000" x="54.996968040382626" y="3" transform="rotate(180 54.996968040382626 0)" font-family="sans-serif">HAS</text></g><g class="relationship" transform="translate(-80.41718003522587 82.22581768666167) rotate(336.8195695859565)"><path class="outline" fill="#A5ABB6" stroke="none" d="M 25 0.5 L 44.02213507619002 0.5 L 44.02213507619002 -0.5 L 25 -0.5 Z M 66.47135382619001 0.5 L 85.49348890238004 0.5 L 85.49348890238004 3.5 L 92.49348890238004 0 L 85.49348890238004 -3.5 L 85.49348890238004 -0.5 L 66.47135382619001 -0.5 Z"/><text text-anchor="middle" pointer-events="none" font-size="8px" fill="#000000" x="55.24674445119002" y="3" font-family="sans-serif">HAS</text></g></g><g class="layer nodes"><g class="node" transform="translate(122.80702771667683,321.0196051864019)"><circle class="outline" cx="0" cy="0" r="25" fill="#68BDF6" stroke="#5CA8DB" stroke-width="2px"/><text text-anchor="middle" pointer-events="none" y="5" font-size="10px" fill="#FFFFFF" font-family="sans-serif"> proto-pa…</text></g><g class="node" transform="translate(221.51276268336085,248.79170270208073)"><circle class="outline" cx="0" cy="0" r="25" fill="#6DCE9E" stroke="#60B58B" stroke-width="2px"/><text text-anchor="middle" pointer-events="none" y="5" font-size="10px" fill="#FFFFFF" font-family="sans-serif"> ward.ww…</text></g><g class="node" transform="translate(267.7436329311785,-94.7556184529294)"><circle class="outline" cx="0" cy="0" r="25" fill="#FF756E" stroke="#E06760" stroke-width="2px"/><text text-anchor="middle" pointer-events="none" y="5" font-size="10px" fill="#FFFFFF" font-family="sans-serif"> Federated</text></g><g class="node" transform="translate(150.08051399419918,38.15082519586565)"><circle class="outline" cx="0" cy="0" r="25" fill="#FF756E" stroke="#E06760" stroke-width="2px"/><text text-anchor="middle" pointer-events="none" y="5" font-size="10px" fill="#FFFFFF" font-family="sans-serif"> Scratch</text></g><g class="node" transform="translate(233.86679395879185,128.84410759888917)"><circle class="outline" cx="0" cy="0" r="25" fill="#68BDF6" stroke="#5CA8DB" stroke-width="2px"/><text text-anchor="middle" pointer-events="none" y="5" font-size="10px" fill="#FFFFFF" font-family="sans-serif"> scratch</text></g><g class="node" transform="translate(6.537972439682127,280.796843001099)"><circle class="outline" cx="0" cy="0" r="25" fill="#FF756E" stroke="#E06760" stroke-width="2px"/><text text-anchor="middle" pointer-events="none" y="0" font-size="10px" fill="#FFFFFF" font-family="sans-serif"> How Life</text><text text-anchor="middle" pointer-events="none" y="10" font-size="10px" fill="#FFFFFF" font-family="sans-serif"> Works</text></g><g class="node" transform="translate(162.26337843805916,-72.44604194582001)"><circle class="outline" cx="0" cy="0" r="25" fill="#68BDF6" stroke="#5CA8DB" stroke-width="2px"/><text text-anchor="middle" pointer-events="none" y="5" font-size="10px" fill="#FFFFFF" font-family="sans-serif"> scratch</text></g><g class="node" transform="translate(75.32020425352381,-139.72133764348723)"><circle class="outline" cx="0" cy="0" r="25" fill="#6DCE9E" stroke="#60B58B" stroke-width="2px"/><text text-anchor="middle" pointer-events="none" y="5" font-size="10px" fill="#FFFFFF" font-family="sans-serif"> goals.po…</text></g><g class="node" transform="translate(110.1037198951472,235.1824061310645)"><circle class="outline" cx="0" cy="0" r="25" fill="#68BDF6" stroke="#5CA8DB" stroke-width="2px"/><text text-anchor="middle" pointer-events="none" y="5" font-size="10px" fill="#FFFFFF" font-family="sans-serif"> how-life-…</text></g><g class="node" transform="translate(-83.28783460221769,199.18453015404134)"><circle class="outline" cx="0" cy="0" r="25" fill="#68BDF6" stroke="#5CA8DB" stroke-width="2px"/><text text-anchor="middle" pointer-events="none" y="5" font-size="10px" fill="#FFFFFF" font-family="sans-serif"> proto-pa…</text></g><g class="node" transform="translate(27.591040469417468,35.97709621380315)"><circle class="outline" cx="0" cy="0" r="25" fill="#68BDF6" stroke="#5CA8DB" stroke-width="2px"/><text text-anchor="middle" pointer-events="none" y="5" font-size="10px" fill="#FFFFFF" font-family="sans-serif"> scratch</text></g><g class="node" transform="translate(-80.41718003522587,82.22581768666167)"><circle class="outline" cx="0" cy="0" r="25" fill="#6DCE9E" stroke="#60B58B" stroke-width="2px"/><text text-anchor="middle" pointer-events="none" y="5" font-size="10px" fill="#FFFFFF" font-family="sans-serif"> sfwhang…</text></g></g></svg>