<svg xmlns="http://www.w3.org/2000/svg" width="500.454345703125" height="521.4041137695312" viewBox="-145.55001831054688 -155.77130126953125 500.454345703125 521.4041137695312"><title>Neo4j Graph Visualization</title><desc>Created using Neo4j (http://www.neo4j.com/)</desc><g class="layer relationships"><g class="relationship" transform="translate(189.29363060794722 336.6328263094211) rotate(244.1488647619101)"><path class="outline" fill="#A5ABB6" stroke="none" d="M 25 0.5 L 43.681804092882935 0.5 L 43.681804092882935 -0.5 L 25 -0.5 Z M 66.13102284288294 0.5 L 84.81282693576587 0.5 L 84.81282693576587 3.5 L 91.81282693576587 0 L 84.81282693576587 -3.5 L 84.81282693576587 -0.5 L 66.13102284288294 -0.5 Z"/><text text-anchor="middle" pointer-events="none" font-size="8px" fill="#000000" x="54.906413467882935" y="3" transform="rotate(180 54.906413467882935 0)" font-family="sans-serif">HAS</text></g><g class="relationship" transform="translate(138.3592149286542 231.50946146537618) rotate(244.2752668275491)"><path class="outline" fill="#A5ABB6" stroke="none" d="M 25 0.5 L 46.91032208339174 0.5 L 46.91032208339174 -0.5 L 25 -0.5 Z M 70.69547833339175 0.5 L 92.60580041678348 0.5 L 92.60580041678348 3.5 L 99.60580041678348 0 L 92.60580041678348 -3.5 L 92.60580041678348 -0.5 L 70.69547833339175 -0.5 Z"/><text text-anchor="middle" pointer-events="none" font-size="8px" fill="#000000" x="58.80290020839174" y="3" transform="rotate(180 58.80290020839174 0)" font-family="sans-serif">LINK</text></g><g class="relationship" transform="translate(325.90432076379295 145.3117871522093) rotate(182.6477851311853)"><path class="outline" fill="#A5ABB6" stroke="none" d="M 25 0.5 L 45.15074933650262 0.5 L 45.15074933650262 -0.5 L 25 -0.5 Z M 67.59996808650263 0.5 L 87.75071742300524 0.5 L 87.75071742300524 3.5 L 94.75071742300524 0 L 87.75071742300524 -3.5 L 87.75071742300524 -0.5 L 67.59996808650263 -0.5 Z"/><text text-anchor="middle" pointer-events="none" font-size="8px" fill="#000000" x="56.37535871150262" y="3" transform="rotate(180 56.37535871150262 0)" font-family="sans-serif">HAS</text></g><g class="relationship" transform="translate(206.28145049051443 139.77976845133446) rotate(189.54996913909645)"><path class="outline" fill="#A5ABB6" stroke="none" d="M 25 0.5 L 46.468302299289256 0.5 L 46.468302299289256 -0.5 L 25 -0.5 Z M 70.25345854928926 0.5 L 91.72176084857851 0.5 L 91.72176084857851 3.5 L 98.72176084857851 0 L 91.72176084857851 -3.5 L 91.72176084857851 -0.5 L 70.25345854928926 -0.5 Z"/><text text-anchor="middle" pointer-events="none" font-size="8px" fill="#000000" x="58.360880424289256" y="3" transform="rotate(180 58.360880424289256 0)" font-family="sans-serif">LINK</text></g><g class="relationship" transform="translate(265.8105579776512 -46.38416273910553) rotate(497.2806423536629)"><path class="outline" fill="#A5ABB6" stroke="none" d="M 25 0.5 L 45.29451761023886 0.5 L 45.29451761023886 -0.5 L 25 -0.5 Z M 67.74373636023887 0.5 L 88.03825397047773 0.5 L 88.03825397047773 3.5 L 95.03825397047773 0 L 88.03825397047773 -3.5 L 88.03825397047773 -0.5 L 67.74373636023887 -0.5 Z"/><text text-anchor="middle" pointer-events="none" font-size="8px" fill="#000000" x="56.51912698523886" y="3" transform="rotate(180 56.51912698523886 0)" font-family="sans-serif">HAS</text></g><g class="relationship" transform="translate(177.62020128637116 35.05074011554099) rotate(497.94796830758884)"><path class="outline" fill="#A5ABB6" stroke="none" d="M 25 0.5 L 47.4634841634265 0.5 L 47.4634841634265 -0.5 L 25 -0.5 Z M 71.2486404134265 0.5 L 93.712124576853 0.5 L 93.712124576853 3.5 L 100.712124576853 0 L 93.712124576853 -3.5 L 93.712124576853 -0.5 L 71.2486404134265 -0.5 Z"/><text text-anchor="middle" pointer-events="none" font-size="8px" fill="#000000" x="59.3560622884265" y="3" transform="rotate(180 59.3560622884265 0)" font-family="sans-serif">LINK</text></g><g class="relationship" transform="translate(81.08362779864474 -126.77129379431628) rotate(451.6175574450792)"><path class="outline" fill="#A5ABB6" stroke="none" d="M 25 0.5 L 45.340627354500356 0.5 L 45.340627354500356 -0.5 L 25 -0.5 Z M 67.78984610450036 0.5 L 88.13047345900071 0.5 L 88.13047345900071 3.5 L 95.13047345900071 0 L 88.13047345900071 -3.5 L 88.13047345900071 -0.5 L 67.78984610450036 -0.5 Z"/><text text-anchor="middle" pointer-events="none" font-size="8px" fill="#000000" x="56.565236729500356" y="3" transform="rotate(180 56.565236729500356 0)" font-family="sans-serif">HAS</text></g><g class="relationship" transform="translate(77.69259042097116 -6.688690895366362) rotate(447.00844781229233)"><path class="outline" fill="#A5ABB6" stroke="none" d="M 25 0.5 L 47.6643861254125 0.5 L 47.6643861254125 -0.5 L 25 -0.5 Z M 71.4495423754125 0.5 L 94.113928500825 0.5 L 94.113928500825 3.5 L 101.113928500825 0 L 94.113928500825 -3.5 L 94.113928500825 -0.5 L 71.4495423754125 -0.5 Z"/><text text-anchor="middle" pointer-events="none" font-size="8px" fill="#000000" x="59.5569642504125" y="3" font-family="sans-serif">LINK</text></g><g class="relationship" transform="translate(-116.55001511847466 -17.95924877238041) rotate(394.21996194449844)"><path class="outline" fill="#A5ABB6" stroke="none" d="M 25 0.5 L 44.31094510023941 0.5 L 44.31094510023941 -0.5 L 25 -0.5 Z M 66.76016385023941 0.5 L 86.07110895047882 0.5 L 86.07110895047882 3.5 L 93.07110895047882 0 L 86.07110895047882 -3.5 L 86.07110895047882 -0.5 L 66.76016385023941 -0.5 Z"/><text text-anchor="middle" pointer-events="none" font-size="8px" fill="#000000" x="55.53555447523941" y="3" font-family="sans-serif">HAS</text></g><g class="relationship" transform="translate(-18.918822406192593 48.44057787176889) rotate(394.4585429439929)"><path class="outline" fill="#A5ABB6" stroke="none" d="M 25 0.5 L 47.18392637917103 0.5 L 47.18392637917103 -0.5 L 25 -0.5 Z M 70.96908262917103 0.5 L 93.15300900834205 0.5 L 93.15300900834205 3.5 L 100.15300900834205 0 L 93.15300900834205 -3.5 L 93.15300900834205 -0.5 L 70.96908262917103 -0.5 Z"/><text text-anchor="middle" pointer-events="none" font-size="8px" fill="#000000" x="59.07650450417103" y="3" font-family="sans-serif">LINK</text></g><g class="relationship" transform="translate(-88.03419019140676 262.8433233162505) rotate(298.3468589404137)"><path class="outline" fill="#A5ABB6" stroke="none" d="M 25 0.5 L 42.77748117853105 0.5 L 42.77748117853105 -0.5 L 25 -0.5 Z M 65.22669992853105 0.5 L 83.0041811070621 0.5 L 83.0041811070621 3.5 L 90.0041811070621 0 L 83.0041811070621 -3.5 L 83.0041811070621 -0.5 L 65.22669992853105 -0.5 Z"/><text text-anchor="middle" pointer-events="none" font-size="8px" fill="#000000" x="54.00209055353105" y="3" font-family="sans-serif">HAS</text></g><g class="relationship" transform="translate(-33.429268583110144 161.62937067997748) rotate(340.199957477706)"><path class="outline" fill="#A5ABB6" stroke="none" d="M 25 0.5 L 47.15711907632532 0.5 L 47.15711907632532 -0.5 L 25 -0.5 Z M 70.94227532632533 0.5 L 93.09939440265065 0.5 L 93.09939440265065 3.5 L 100.09939440265065 0 L 93.09939440265065 -3.5 L 93.09939440265065 -0.5 L 70.94227532632533 -0.5 Z"/><text text-anchor="middle" pointer-events="none" font-size="8px" fill="#000000" x="59.04969720132532" y="3" font-family="sans-serif">LINK</text></g><g class="relationship" transform="translate(-88.03419019140676 262.8433233162505) rotate(341.24316718741534)"><path class="outline" fill="#A5ABB6" stroke="none" d="M 25 0.5 L 43.06717236026407 0.5 L 43.06717236026407 -0.5 L 25 -0.5 Z M 65.51639111026407 0.5 L 83.58356347052813 0.5 L 83.58356347052813 3.5 L 90.58356347052813 0 L 83.58356347052813 -3.5 L 83.58356347052813 -0.5 L 65.51639111026407 -0.5 Z"/><text text-anchor="middle" pointer-events="none" font-size="8px" fill="#000000" x="54.29178173526407" y="3" font-family="sans-serif">HAS</text></g><g class="relationship" transform="translate(21.41093705693364 225.67715232514382) rotate(300.56988827979404)"><path class="outline" fill="#A5ABB6" stroke="none" d="M 25 0.5 L 46.409170764930884 0.5 L 46.409170764930884 -0.5 L 25 -0.5 Z M 70.19432701493088 0.5 L 91.60349777986177 0.5 L 91.60349777986177 3.5 L 98.60349777986177 0 L 91.60349777986177 -3.5 L 91.60349777986177 -0.5 L 70.19432701493088 -0.5 Z"/><text text-anchor="middle" pointer-events="none" font-size="8px" fill="#000000" x="58.301748889930884" y="3" font-family="sans-serif">LINK</text></g></g><g class="layer nodes"><g class="node" transform="translate(138.3592149286542,231.50946146537618)"><circle class="outline" cx="0" cy="0" r="25" fill="#68BDF6" stroke="#5CA8DB" stroke-width="2px"/><text text-anchor="middle" pointer-events="none" y="5" font-size="10px" fill="#FFFFFF" font-family="sans-serif"> ward-cu…</text></g><g class="node" transform="translate(84.27431436867961,119.25337464187723)"><circle class="outline" cx="0" cy="0" r="25" fill="#FF756E" stroke="#E06760" stroke-width="2px"/><text text-anchor="middle" pointer-events="none" y="5" font-size="10px" fill="#FFFFFF" font-family="sans-serif"> Federati…</text></g><g class="node" transform="translate(189.29363060794722,336.6328263094211)"><circle class="outline" cx="0" cy="0" r="25" fill="#6DCE9E" stroke="#60B58B" stroke-width="2px"/><text text-anchor="middle" pointer-events="none" y="5" font-size="10px" fill="#FFFFFF" font-family="sans-serif"> search.f…</text></g><g class="node" transform="translate(325.90432076379295,145.3117871522093)"><circle class="outline" cx="0" cy="0" r="25" fill="#6DCE9E" stroke="#60B58B" stroke-width="2px"/><text text-anchor="middle" pointer-events="none" y="5" font-size="10px" fill="#FFFFFF" font-family="sans-serif"> plugin.fe…</text></g><g class="node" transform="translate(206.28145049051443,139.77976845133446)"><circle class="outline" cx="0" cy="0" r="25" fill="#68BDF6" stroke="#5CA8DB" stroke-width="2px"/><text text-anchor="middle" pointer-events="none" y="5" font-size="10px" fill="#FFFFFF" font-family="sans-serif"> search-p…</text></g><g class="node" transform="translate(177.62020128637116,35.05074011554099)"><circle class="outline" cx="0" cy="0" r="25" fill="#68BDF6" stroke="#5CA8DB" stroke-width="2px"/><text text-anchor="middle" pointer-events="none" y="5" font-size="10px" fill="#FFFFFF" font-family="sans-serif"> search-t…</text></g><g class="node" transform="translate(265.8105579776512,-46.38416273910553)"><circle class="outline" cx="0" cy="0" r="25" fill="#6DCE9E" stroke="#60B58B" stroke-width="2px"/><text text-anchor="middle" pointer-events="none" y="5" font-size="10px" fill="#FFFFFF" font-family="sans-serif"> ksenya.…</text></g><g class="node" transform="translate(77.69259042097116,-6.688690895366362)"><circle class="outline" cx="0" cy="0" r="25" fill="#68BDF6" stroke="#5CA8DB" stroke-width="2px"/><text text-anchor="middle" pointer-events="none" y="5" font-size="10px" fill="#FFFFFF" font-family="sans-serif"> search-r…</text></g><g class="node" transform="translate(81.08362779864474,-126.77129379431628)"><circle class="outline" cx="0" cy="0" r="25" fill="#6DCE9E" stroke="#60B58B" stroke-width="2px"/><text text-anchor="middle" pointer-events="none" y="5" font-size="10px" fill="#FFFFFF" font-family="sans-serif"> future.fe…</text></g><g class="node" transform="translate(-116.55001511847466,-17.95924877238041)"><circle class="outline" cx="0" cy="0" r="25" fill="#6DCE9E" stroke="#60B58B" stroke-width="2px"/><text text-anchor="middle" pointer-events="none" y="5" font-size="10px" fill="#FFFFFF" font-family="sans-serif"> forage.w…</text></g><g class="node" transform="translate(-18.918822406192593,48.44057787176889)"><circle class="outline" cx="0" cy="0" r="25" fill="#68BDF6" stroke="#5CA8DB" stroke-width="2px"/><text text-anchor="middle" pointer-events="none" y="5" font-size="10px" fill="#FFFFFF" font-family="sans-serif"> recent-c…</text></g><g class="node" transform="translate(-88.03419019140676,262.8433233162505)"><circle class="outline" cx="0" cy="0" r="25" fill="#6DCE9E" stroke="#60B58B" stroke-width="2px"/><text text-anchor="middle" pointer-events="none" y="5" font-size="10px" fill="#FFFFFF" font-family="sans-serif"> don.ny2.…</text></g><g class="node" transform="translate(-33.429268583110144,161.62937067997748)"><circle class="outline" cx="0" cy="0" r="25" fill="#68BDF6" stroke="#5CA8DB" stroke-width="2px"/><text text-anchor="middle" pointer-events="none" y="5" font-size="10px" fill="#FFFFFF" font-family="sans-serif"> search-t…</text></g><g class="node" transform="translate(21.41093705693364,225.67715232514382)"><circle class="outline" cx="0" cy="0" r="25" fill="#68BDF6" stroke="#5CA8DB" stroke-width="2px"/><text text-anchor="middle" pointer-events="none" y="5" font-size="10px" fill="#FFFFFF" font-family="sans-serif"> recent-c…</text></g></g></svg>